<svg width="195" height="45" viewBox="0 0 195 45" fill="none" xmlns="http://www.w3.org/2000/svg">
<path d="M195 2.89169V39.6777C194.725 39.6128 194.453 39.5653 194.165 39.5511C193.705 39.5289 193.219 39.3375 192.779 39.2346C192.442 39.1571 192.159 39.0795 191.801 39.0748C190.98 39.0637 190.095 39.7584 189.293 39.2393C188.893 38.9798 188.568 38.7045 188.091 38.7931C187.878 38.8343 187.011 39.1397 186.835 38.8169C186.916 39.4118 186.478 39.5906 186.161 39.809C186.033 39.8945 185.93 40.0843 185.798 40.1413C185.63 40.2157 185.45 40.1571 185.279 40.165C184.91 40.1809 184.564 40.6809 184.229 40.6145C184.075 40.5828 184.058 40.4135 183.941 40.3565C183.788 40.279 183.618 40.2869 183.455 40.2109C182.399 39.7204 181.181 40.1461 180.071 40.0163C179.918 39.9973 179.714 39.8881 179.593 39.9672C179.391 40.1002 179.441 40.4689 179.277 40.6524C179.108 40.8455 179.01 40.7505 178.814 40.7885C178.635 40.8265 178.53 40.9056 178.365 40.9927C177.978 41.1936 177.67 40.9341 177.305 41.1018C176.934 41.2743 176.425 41.3772 175.996 41.2284C175.749 41.143 175.785 41.0306 175.588 41.2411C175.432 41.4056 175.343 41.8218 175.224 42.0196C174.972 42.4469 174.673 42.3614 174.282 42.3567C173.997 42.3535 173.896 42.3408 173.658 42.5102C173.528 42.6051 173.415 42.7254 173.267 42.7887C172.958 42.9279 172.603 42.8915 172.289 42.8124C171.58 42.6383 170.499 41.8566 169.873 42.7602C169.771 42.594 169.187 42.6273 169.027 42.5909C168.718 42.5212 168.342 42.5956 168.043 42.4817C167.902 42.4279 167.772 42.3045 167.632 42.2396C167.428 42.1446 167.194 42.1367 166.993 42.0481C166.806 41.9642 166.779 41.8455 166.639 41.7237C166.47 41.575 166.53 41.6921 166.346 41.5797C166.099 41.4294 165.918 41.1398 165.668 40.9816C165.335 40.7695 165.228 40.8059 164.997 41.0876C164.488 41.7063 163.811 42.3408 163.031 42.0323C162.764 41.9263 162.698 41.7443 162.369 41.73C162.047 41.7158 161.634 41.6636 161.331 41.7443C161.046 41.8218 160.87 41.8899 160.561 41.8835C160.131 41.8756 159.662 41.9025 159.302 42.1921C158.946 42.4754 158.653 43.007 158.279 43.2412C157.906 43.4754 157.355 43.5973 156.942 43.6178C156.547 43.64 156.162 43.3393 155.783 43.4754C155.4 43.6163 154.802 44.0625 154.559 44.4439C154.465 44.5894 154.411 44.8189 154.274 44.9186C153.884 45.2034 153.402 44.6385 152.962 44.7777C152.635 44.8822 152.604 44.8205 152.354 44.7366C151.984 44.6132 151.494 44.6986 151.106 44.7018C150.532 44.7065 150.012 44.4533 149.436 44.3885C149.136 44.3552 149.12 44.2492 148.89 44.0736C148.791 43.996 148.857 43.9391 148.746 43.9011C148.661 43.8726 148.406 44.0087 148.314 44.034C148.092 44.0973 147.675 44.2872 147.45 44.2049C147.299 44.1495 147.204 43.9438 147.002 43.9122C146.645 43.8552 146.537 43.9407 146.242 43.6432C146.162 43.5609 146.048 43.3852 145.961 43.3267C145.837 43.246 145.661 43.2982 145.53 43.2966C145.306 43.2934 145.221 43.2096 145.015 43.1526C144.334 42.9612 143.544 43.1985 143.002 42.5054C142.696 42.113 142.305 42.0434 141.931 41.7285C141.784 41.6035 141.668 41.4151 141.524 41.298C141.46 41.2458 141.347 41.2854 141.285 41.2316C141.222 41.1778 141.179 41.0227 141.129 40.9847C140.78 40.7221 140.401 40.904 140.077 40.6809C139.897 40.5575 139.933 40.4926 139.696 40.4784C139.494 40.4657 139.271 40.4657 139.069 40.4784C138.668 40.5021 138.263 41.1936 137.989 40.6398C137.808 40.2758 137.778 40.3201 137.401 40.3249C137.209 40.328 137.019 40.3233 136.828 40.3249C136.697 40.3249 136.459 40.3723 136.343 40.3328C136.295 40.3154 136.183 40.2078 136.166 40.203C136.002 40.1651 135.848 40.2014 135.682 40.1761C135.439 40.1413 135.205 39.9673 134.962 39.9451C134.711 39.9214 134.528 40.0954 134.287 40.1571C133.891 40.26 133.757 39.972 133.488 39.6982C133.191 39.3976 132.722 39.1776 132.507 38.7615C132.353 38.4687 132.389 38.3754 132.034 38.4703C131.792 38.532 131.36 38.9324 131.016 39.1254C131.02 39.108 131.017 39.0922 131.016 39.07C130.683 39.0495 130.168 38.5083 129.828 38.7852C129.676 38.9071 129.695 39.2156 129.671 39.3913C129.629 39.6872 129.675 39.6508 129.412 39.8059C128.628 40.2679 127.982 40.4499 127.156 40.1382C126.953 40.059 126.817 39.8375 126.644 39.7346C126.394 39.5875 125.965 39.464 125.717 39.3881C125.285 39.252 124.685 39.0004 124.232 39.0605C123.899 39.1033 123.579 39.4055 123.268 39.5479C122.699 39.8138 122.151 39.866 121.547 39.8596C121.437 39.8565 121.279 39.8976 121.173 39.8644C121.087 39.8375 121.085 39.7536 121.027 39.7346C120.412 39.5147 119.738 39.5875 119.101 39.5511C118.821 39.5337 118.809 39.3754 118.585 39.2583C118.312 39.1175 118.145 39.2631 117.932 39.3881C117.206 39.7995 116.243 39.2425 115.528 39.8517C115.234 40.1033 115.267 40.7632 114.972 41.0227C114.743 41.2268 114.088 41.124 113.862 41.1145C113.382 41.0939 112.885 41.0512 112.415 40.9531C111.918 40.8502 111.637 40.5163 111.267 40.1603C110.964 39.8691 110.593 39.4292 110.207 39.4071C109.627 39.3786 109.009 39.6698 108.469 39.233C108.22 39.0289 108.208 38.9102 107.872 38.9197C107.535 38.9276 107.25 38.7267 106.93 38.7504C106.569 38.7757 106.125 39.0226 105.783 39.1618C105.421 39.3074 105.083 39.6413 104.721 39.7568C104.485 39.8327 104.513 39.7726 104.286 39.7157C103.915 39.6207 103.525 39.828 103.168 39.7473C102.828 39.6682 102.687 39.2552 102.355 39.5321C102.21 39.6539 102.178 39.7679 101.999 39.8596C101.853 39.9324 101.703 39.9736 101.553 40.0116C101.092 40.1287 100.578 40.5591 100.114 40.3091C100.019 40.2584 99.9505 40.1461 99.8514 40.0859C99.6809 39.9862 99.5435 40.0021 99.3876 39.8644C99.0824 39.5906 99.1299 39.5701 98.6952 39.5052C98.316 39.4498 97.9526 39.3754 97.5694 39.3833C97.2483 39.3881 97.095 39.2014 96.7752 39.2488C96.2467 39.3232 95.6692 39.2204 95.0944 39.309C94.8619 39.3454 94.6042 39.4356 94.3743 39.3738C94.2712 39.3454 94.2673 39.271 94.1404 39.2488C93.9898 39.2251 93.818 39.309 93.6779 39.3738C93.5445 39.4387 93.2802 39.6935 93.1335 39.684C93.0489 39.6793 93.0014 39.5875 92.967 39.5811C92.7741 39.5511 92.5825 39.5432 92.3764 39.5432C91.9958 39.5463 91.4923 39.4435 91.125 39.5574C90.5885 39.7204 90.0018 40.0353 89.4852 40.3486C89.3345 40.4404 89.1852 40.548 89.0491 40.6651C88.8985 40.7917 88.6857 41.1382 88.5391 41.2173C88.3607 41.3123 88.3488 41.1873 88.173 41.1715C87.8044 41.1351 87.4516 41.5006 87.0551 41.4262C86.8398 41.3867 86.7843 41.2221 86.5966 41.1335C86.4592 41.0686 86.2914 41.105 86.1461 41.1066C85.743 41.1145 85.4193 41.1635 85.0295 41.2601C84.3437 41.4262 83.6315 41.5781 82.9364 41.7C82.6986 41.7427 82.3999 41.8835 82.1621 41.8614C81.9388 41.8376 81.7366 41.7253 81.4868 41.7285C81.1301 41.7332 80.7535 41.7664 80.3954 41.7332C80.2553 41.7205 80.1298 41.6446 80.0003 41.6351C79.6158 41.6066 79.1348 41.9769 78.819 42.2016C78.601 42.3582 78.3975 42.5386 78.1702 42.6573C77.9905 42.7507 77.9112 42.7222 77.8227 42.9643C77.6113 42.9406 77.524 42.7887 77.3602 42.6652C77.3417 42.5624 77.2915 42.507 77.2069 42.5054C77.1144 42.5307 77.0246 42.5212 76.9387 42.4785C76.5819 42.3757 76.2648 42.306 75.8816 42.3883C75.2988 42.5117 74.8733 42.7839 74.3382 42.5149C73.9167 42.2997 73.47 42.2823 73.0604 42.5054C72.8173 42.6383 72.516 42.9564 72.2266 42.9548C72.0152 42.9517 72.0496 42.8535 71.8633 42.8108C71.7271 42.844 71.5963 42.8899 71.4668 42.9469C71.2871 42.9928 71.1074 43.0039 70.9251 42.9849C70.7533 42.9833 70.452 42.9153 70.2829 42.9706C70.0794 43.0355 69.975 43.2238 69.7794 43.3029C69.5997 43.2824 69.4227 43.2887 69.2456 43.3251C69.0236 43.3583 68.8056 43.4153 68.5942 43.496C68.2585 43.6068 67.8621 43.4011 67.6705 43.0023C67.2847 42.9691 66.9001 43.2001 66.5183 43.2697C66.2395 43.3203 65.9276 43.3267 65.6462 43.3014C65.3673 43.276 65.1321 43.1479 64.8665 43.0593C64.4212 42.9105 63.9495 42.9374 63.4883 42.7871C63.2056 42.6969 63.158 42.6241 63.006 42.3519C62.9426 42.2396 62.792 41.9832 62.6929 41.9199C62.5052 41.7997 62.0058 41.8503 61.7943 41.8424C61.4058 41.8313 61.2142 42.1842 60.8997 42.4674C60.6223 42.1589 60.5668 42.1541 60.1545 42.287C59.6273 42.4564 59.1199 42.6273 58.5992 42.7491C58.4393 42.7839 58.3178 42.8615 58.1407 42.8298C58.0324 42.8077 57.9346 42.7222 57.8632 42.7032C57.488 42.6083 57.1061 42.5988 56.7268 42.4833C56.7427 42.094 56.4811 42.2348 56.2815 42.2396C56.0648 42.2459 55.9049 42.2823 55.6935 42.1652C55.3737 41.988 55.046 41.7569 54.721 41.5797C54.5611 41.4943 54.2823 41.2411 54.0999 41.2411C53.7907 41.2379 53.6969 41.7538 53.4392 41.8709C53.352 41.8851 53.2622 41.8978 53.175 41.9025C52.945 42.0275 52.7297 42.1794 52.5301 42.3662C52.2738 42.5529 51.987 42.7776 51.6752 42.6652C51.5774 42.6288 51.2999 42.4263 51.2444 42.3234C51.1348 42.1177 51.3065 42.0149 51.1123 41.874C50.8652 41.6905 50.4437 42.1684 50.1926 42.0655C49.9812 41.9769 50.0235 41.7522 49.7632 41.711C49.6297 41.7285 49.5055 41.7791 49.3905 41.8614C49.2927 41.8883 49.2082 41.8566 49.1368 41.7712C48.9651 41.7253 48.7774 41.8092 48.6083 41.7443C48.4867 41.6952 48.4167 41.5829 48.3123 41.5038C48.0665 41.3218 47.7798 41.2838 47.5142 41.1525C47.3305 41.0591 47.1653 40.9293 46.9909 40.817C46.872 40.7379 46.7517 40.6651 46.6275 40.6002C46.4148 40.4879 46.1386 40.4467 45.9457 40.2932C45.7633 40.1508 45.7039 39.8248 45.5268 39.7109C45.3802 39.6175 45.1212 39.5986 44.9534 39.5384C44.5424 39.3928 44.0456 39.3375 43.6069 39.1523C43.4086 39.0684 43.1298 38.9656 42.9594 38.8216C42.8061 38.695 42.7783 38.5858 42.5841 38.4893C42.3529 38.3754 42.156 38.3295 41.9578 38.1412C41.7741 37.9639 41.7067 37.7867 41.4424 37.8057C41.1121 37.8294 41.0037 38.1412 40.8439 38.4371C40.569 38.9466 40.2215 39.2995 39.7603 39.5701C39.2873 39.847 38.9305 39.6967 38.4337 39.7014C38.1813 39.703 37.9223 39.7252 37.6725 39.703C37.5034 39.6888 37.3937 39.6001 37.2352 39.5701C36.9603 39.5179 36.7383 39.7378 36.4688 39.6935C36.2943 39.665 36.1781 39.5004 36.0182 39.453C35.8173 39.396 35.701 39.5194 35.4975 39.5511C35.3496 39.5716 35.1897 39.5289 35.0404 39.5368C34.6915 39.5527 34.3281 39.8897 33.9925 40.0543C33.6291 40.2315 33.1098 40.4847 32.7134 40.4926C32.4042 40.4974 32.132 40.1935 31.8426 40.1967C31.6431 40.1983 31.5479 40.366 31.3207 40.3138C31.178 40.279 31.0802 40.1571 30.9295 40.1571C30.5873 40.1556 30.286 40.5717 29.9464 40.5717C29.739 40.5717 29.6518 40.4467 29.4284 40.5163C29.3029 40.5543 29.1629 40.6255 29.0347 40.6762C28.8893 40.7316 28.8048 40.8028 28.6435 40.8012C28.4586 40.798 28.3462 40.6809 28.1771 40.6651C27.823 40.6319 27.4543 40.8297 27.087 40.8012C26.8967 40.7869 26.7949 40.7316 26.6218 40.6572C26.4778 40.5955 26.314 40.529 26.1646 40.4926C25.9017 40.4309 25.792 40.5733 25.5542 40.6145C25.1723 40.6793 24.6081 39.9467 24.4601 40.6334C24.4165 40.836 24.4627 40.9056 24.353 41.1018C24.2235 41.3344 23.9632 41.5639 23.7439 41.6652C23.3845 41.8361 23.0739 41.6604 22.7158 41.5892C22.3683 41.518 22.0472 41.6082 21.7235 41.6968C21.2914 41.8171 21.2134 41.7633 20.8434 42.1605C20.7007 42.3187 20.6201 42.4785 20.4232 42.5244C20.2607 42.5624 20.0612 42.5197 19.892 42.5481C19.2551 42.6573 18.461 42.8235 17.8148 42.6763C17.5466 42.6178 17.3867 42.4912 17.0973 42.5212C16.874 42.5434 16.541 42.7554 16.323 42.6621C16.1592 42.594 16.1671 42.4073 15.9742 42.3757C15.6887 42.3282 15.3518 42.6383 15.0862 42.7396C14.8483 42.8298 14.6448 42.8251 14.4308 42.9975C14.1533 43.2175 13.9141 43.6289 13.5891 43.7523C13.2402 43.8837 12.9019 43.6669 12.5756 43.5735C12.1778 43.458 11.7867 43.3441 11.3771 43.3061C11.2198 43.2919 10.986 43.3441 10.8393 43.284C10.6635 43.2127 10.5274 43.0371 10.3173 42.9944C10.1601 42.9643 10.0583 43.0039 9.92488 42.8915C9.8271 42.8108 9.80331 42.6146 9.69495 42.545C9.55092 42.4516 9.37783 42.545 9.22455 42.5212C9.02106 42.488 8.93253 42.276 8.78718 42.2206C8.57576 42.1446 8.19784 42.4548 8.00096 42.5212C7.64815 42.6431 7.15263 42.7681 6.78925 42.6573C6.68354 42.6273 6.64521 42.5386 6.51968 42.507C6.25805 42.4453 5.95678 42.6367 5.72554 42.4279C5.57622 42.2965 5.58812 42.0845 5.43748 41.9721C5.02653 41.6652 4.46758 42.0956 4.08703 41.6304C3.70383 41.8645 3.37877 42.2111 2.99689 42.4405C2.69165 42.6273 2.1512 42.9944 1.82218 42.9643C1.69797 42.9517 1.62265 42.8425 1.49977 42.8124C1.30684 42.7697 0.997634 42.92 0.844354 42.9738C0.560257 43.0719 0.281454 43.1431 0 43.1906V5.0121C0.0132138 5.0121 0.0277464 5.01369 0.043603 5.01369C0.0237823 5.86028 0.825857 5.63083 1.23681 5.50424C1.54865 5.40613 1.62397 5.54538 1.8856 5.74477C2.11684 5.92199 2.30845 5.9299 2.57008 5.93465C2.99953 5.9394 2.89118 6.0565 3.08542 6.40937C3.38009 6.95055 3.89146 6.66255 4.34073 6.59609C4.64994 6.5502 5.04106 6.48691 5.3463 6.57552C5.65947 6.66256 5.91052 6.93631 6.22633 7.03442C6.84342 7.22431 7.5094 7.21481 8.13837 7.2338C8.80303 7.2512 9.21002 6.76857 9.7095 6.34291C9.92092 6.16093 10.3358 5.42038 10.6411 5.44411C10.7587 5.45361 10.7177 5.57386 10.7891 5.58968C10.9542 5.6324 11.1168 5.62925 11.2925 5.65931C11.7933 5.74476 12.2954 5.83653 12.7923 5.92198C13.0856 5.97262 13.3578 6.08022 13.6472 6.09605C14.0304 6.1182 14.7109 6.21631 15.0717 6.03275C15.3333 5.89666 15.6147 5.4995 15.9187 5.47576C16.1591 5.45677 16.3468 5.64032 16.5305 5.81438C16.8066 6.07706 17.2876 6.51539 17.6444 6.57236C17.9536 6.62458 18.2668 6.52646 18.5826 6.5945C18.9499 6.67362 19.2987 6.83978 19.6542 6.96004C20.0995 7.10721 20.1061 6.96162 20.4206 6.70686C20.8183 6.3888 21.117 7.0439 21.4632 7.2781C22.1252 7.72908 23.0211 7.69111 23.7399 7.88891C24.4151 8.0788 24.8895 7.82244 25.3441 7.18633C25.6982 6.6942 26.2664 6.19891 26.8161 6.08498C27.0354 6.03909 27.2508 6.12612 27.4702 6.05808C27.7252 5.97896 27.9895 5.82704 28.2524 5.77166C28.4744 5.72577 28.6343 5.79381 28.851 5.68779C29.1245 5.55645 29.2606 5.46785 29.5579 5.46785C29.8434 5.46785 29.9914 5.43462 30.2305 5.24631C30.6772 4.89502 30.8714 4.73202 31.3814 4.69088C31.951 4.64341 32.4161 4.24464 32.9512 4.05792C33.2142 3.96456 33.4996 3.9076 33.7705 3.78734C33.8974 3.73354 34.0705 3.59744 34.2066 3.61168C34.4735 3.637 34.669 3.9345 34.9069 4.07217C35.4513 4.39023 36.0657 4.04686 36.6115 4.32852C37.3871 4.73203 37.7968 5.20359 38.7006 4.91401C39.2053 4.75418 39.6705 4.46144 40.1435 4.20667C40.491 4.01678 40.7963 4.06109 41.1729 4.06109C41.6724 4.06109 42.1415 4.11964 42.6211 3.90759C42.7704 3.84113 42.9554 3.78575 43.106 3.70979C43.2646 3.63068 43.6042 3.52466 43.7298 3.40756C43.9359 3.21609 43.9055 2.87271 44.0693 2.64801C44.2913 2.33945 44.7816 2.26508 45.071 2.02613C45.3894 1.76188 45.3722 1.74445 45.7435 1.72072C46.0659 1.69857 46.2708 1.42481 46.5945 1.39633C46.8574 1.37101 47.0649 1.52926 47.3173 1.56724C47.5261 1.60047 47.7798 1.5609 47.9912 1.5609C48.1775 1.5609 48.5898 1.64952 48.7523 1.53717C48.9651 1.38842 48.9756 1.06878 49.269 0.967506C49.5346 0.874142 49.6958 0.921608 49.9138 1.07985C50.2666 1.3362 50.3987 1.75711 50.7978 1.3805C51.185 1.01497 51.222 0.907368 51.7532 0.937431C52.0505 0.953259 52.2804 1.02763 52.5658 1.13523C53.1168 1.33778 53.6573 1.26342 54.1977 1.05296C54.3655 0.9865 54.5796 0.907372 54.7435 0.790272C55.0342 0.582977 55.2984 0.111435 55.6327 0.0164909C55.9366 -0.0673752 56.1468 0.20005 56.4758 0.119347C56.7467 0.0497208 56.9462 -0.0531425 57.2277 0.0338898C57.6505 0.160484 57.9623 0.55608 58.3217 0.798183C58.5794 0.970665 58.7789 0.869404 59.0604 0.926369C59.3841 0.994411 59.5625 1.33778 59.8691 1.41532C60.1201 1.47861 60.3038 1.35202 60.5284 1.51818C60.802 1.72072 60.8945 1.95492 61.2473 2.03879C61.7322 2.15114 62.2211 2.23658 62.71 2.33311C63.0285 2.3964 63.1976 2.50401 63.5491 2.49768C63.8345 2.49294 64.0156 2.56256 64.2812 2.65909C64.3816 2.69549 64.4464 2.67175 64.5428 2.72713C64.6512 2.78726 64.6631 2.92493 64.7939 2.97557C64.9736 3.04203 65.2616 2.96766 65.4532 2.96766C65.5563 2.96608 65.7545 2.9186 65.8497 2.95658C65.9963 3.0088 65.9699 3.16704 66.0981 3.25249C66.213 3.33319 66.2712 3.23824 66.3729 3.27464C66.5421 3.33635 66.7138 3.50568 66.8883 3.59271C67.5265 3.9076 68.5466 3.65917 69.2324 3.73512C69.5165 3.76677 69.9301 3.8269 70.1613 3.56106C70.341 3.35535 70.1891 3.06893 70.4044 2.95658C70.6185 2.84423 71.0929 2.96766 71.3281 2.96766C71.5765 2.96766 71.8249 2.97714 72.0734 2.97081C72.3786 2.9629 72.6244 2.82998 72.9217 2.80783C73.1569 2.792 73.4436 2.78252 73.6735 2.84581C74.1228 2.9724 74.5258 2.93758 75.0068 2.95816C75.801 2.99614 76.5898 3.60694 77.3602 3.32685C77.7289 3.19077 78.0064 2.93916 78.3697 3.15279C78.7358 3.36325 78.9789 3.61801 79.3832 3.71454C79.6937 3.78733 80.0267 3.86487 80.3372 3.91234C80.4601 3.93133 80.6134 3.85538 80.731 3.89811C80.8341 3.93608 80.8394 4.0152 80.92 4.06109C81.0627 4.14338 81.2054 4.33801 81.3693 4.38231C81.6031 4.44561 81.9943 4.40922 82.2176 4.36174C82.2995 4.34276 82.3193 4.24464 82.4118 4.21299C82.5928 4.14653 82.7091 4.19243 82.9047 4.07692C83.2971 3.84272 83.5826 3.43446 83.9962 3.23033C84.2234 3.11798 84.4111 3.17178 84.641 3.09266C84.9502 2.98189 85.1643 2.6939 85.4127 2.49294C85.7919 2.1907 86.3297 2.09892 86.738 1.83466C86.8517 1.76186 87.1741 1.43115 87.3273 1.41691C87.4516 1.40583 87.5084 1.57515 87.6405 1.57673C87.7859 1.58147 87.8559 1.39634 88.0039 1.4264C88.0198 1.43115 88.1519 1.60363 88.1532 1.60363C88.4571 1.7682 88.9038 1.78719 89.2328 1.69383C89.6067 1.58939 89.8578 1.26658 90.2555 1.24442C90.504 1.23018 90.8 1.31879 91.0418 1.25708C91.3483 1.17638 91.3602 1.01973 91.6245 1.24759C91.898 1.47862 91.8821 1.56723 92.2746 1.56248C92.5481 1.55773 92.8534 1.60521 93.1269 1.56248C93.3264 1.53241 93.4467 1.4454 93.6435 1.40109C93.8457 1.3552 94.2474 1.33621 94.4364 1.39318C94.768 1.49287 94.8738 1.95175 95.2107 2.04037C95.7974 2.19386 96.4502 1.78561 97.0395 1.78561C97.3619 1.78719 97.6394 1.92643 97.9869 1.8394C98.3728 1.74762 98.7414 1.31405 99.1299 1.43431C99.3823 1.5071 99.5277 1.78719 99.7497 1.9122C99.8884 1.98816 100.102 2.14164 100.248 2.1717C100.356 2.19386 100.455 2.17488 100.565 2.18121C100.755 2.19387 100.897 2.28406 101.08 2.32837C101.432 2.40432 101.919 2.35368 102.242 2.523C102.248 2.5673 102.254 2.61161 102.26 2.65434C102.55 2.7651 102.739 2.82682 103.044 2.93442C103.25 3.00879 103.732 3.06894 103.863 2.84107C104.088 2.9819 104.267 2.70972 104.487 2.68124C104.751 2.64801 104.985 2.80783 105.224 2.9629C105.491 3.1338 105.599 3.26514 105.918 3.28572C106.072 3.29837 106.186 3.27623 106.343 3.31262C106.803 3.41547 107.063 3.87436 107.485 4.03102C108.274 4.32851 108.944 3.2604 109.729 3.28097C109.848 3.28414 109.988 3.25724 110.101 3.27623C110.187 3.29047 110.337 3.39806 110.383 3.40597C110.671 3.44553 110.989 3.24775 111.275 3.11799C111.691 2.93285 112.024 2.94867 112.471 3.00722C112.677 3.0357 112.882 3.06576 113.088 3.0974C113.483 3.13538 113.871 3.10215 114.257 2.99455C114.468 3.02303 114.41 2.98506 114.574 3.1164C115.004 3.46294 115.384 3.50883 115.943 3.55789C116.533 3.61169 117.205 3.48985 117.772 3.73987C117.968 3.8269 118.113 3.98672 118.289 4.10856C119.177 4.72728 119.782 4.51048 120.616 3.91234C121.226 3.47718 121.773 3.05627 122.332 2.5325C122.855 2.04512 123.431 2.18595 124.064 2.18595C124.326 2.18595 124.589 2.19545 124.849 2.18437C125.155 2.17013 125.412 2.04036 125.719 2.02137C126.325 1.9834 127.145 2.23501 127.659 1.88055C127.895 1.71756 128.022 1.42165 128.236 1.23809C128.503 1.00389 128.509 1.1036 128.722 1.28715C128.943 1.47704 129.171 1.53717 129.417 1.67484C129.782 1.88372 129.766 2.30147 130.044 2.54832C130.251 2.73347 130.926 2.76669 131.197 2.81574C131.565 2.87904 131.915 2.87271 132.282 3.00722C132.603 3.12115 132.882 3.1876 133.233 3.08949C133.289 3.07367 133.508 2.92809 133.597 2.94707C133.796 2.9898 133.784 3.15438 133.918 3.28414C134.189 3.54365 134.63 3.41547 134.902 3.62276C135.106 3.781 135.177 4.0247 135.411 4.17819C135.714 4.37599 135.842 4.36174 136.17 4.33484C136.241 4.33009 136.187 4.23516 136.321 4.24149C136.488 4.2494 136.66 4.51207 136.802 4.59594C137.151 4.8064 137.515 4.63709 137.866 4.88236C138.199 5.11655 138.29 5.15452 138.707 5.15452C139.017 5.15294 139.42 5.19091 139.696 4.96463C139.852 4.83804 139.916 4.57695 140.113 4.53106C140.987 4.32377 142.379 4.33959 143.248 4.21142C143.615 4.15603 143.97 3.99147 144.136 3.58954C144.194 3.44554 144.151 3.39331 144.225 3.27938C144.318 3.13538 144.55 3.07842 144.686 3.01354C144.967 2.87904 145.051 2.61636 145.266 2.39957C145.422 2.24133 145.59 2.09576 145.775 2.01031C145.993 1.90746 145.997 1.97075 146.238 2.03879C146.512 2.11475 146.875 2.02454 147.162 2.02929C147.482 2.03403 147.765 1.93752 148.08 1.8853C148.39 1.83466 148.589 1.90903 148.871 1.99606C149.305 2.1274 149.778 1.91377 150.208 2.02137C150.41 2.07201 150.563 2.2271 150.751 2.32362C151.08 2.48819 151.001 2.5325 151.208 2.87746C151.346 3.10374 151.409 3.07367 151.615 3.12431C151.823 3.17178 152.034 3.12114 152.245 3.19551C152.383 3.24615 152.506 3.3585 152.637 3.40597C152.988 3.5294 153.429 3.44553 153.777 3.33793C153.884 3.59428 153.868 3.90285 153.954 4.14655C154.08 4.49942 154.693 4.42188 154.994 4.49467C155.337 4.57854 155.722 4.53423 156.038 4.61018C156.15 4.63708 156.162 4.6798 156.295 4.65606C156.457 4.62758 156.507 4.48359 156.691 4.51524C156.961 4.56271 157.063 4.82697 157.364 4.84595C157.658 4.86336 158.041 4.75417 158.326 4.83804C158.587 4.91399 158.624 5.06433 158.909 4.89027C159.2 4.70988 159.284 4.53423 159.627 4.52632C159.994 4.52157 159.94 4.71304 160.207 4.89185C160.496 5.08807 160.886 4.8064 161.157 4.65132C161.588 4.40763 161.91 4.15603 162.372 4.29528C162.77 4.41238 163.073 4.41396 163.478 4.19242C163.936 3.93608 164.131 3.73828 164.632 3.75252C165.203 3.76834 165.79 3.64176 166.358 3.59745C166.622 3.5753 166.855 3.44079 167.091 3.28888C167.478 3.03728 167.879 2.86796 168.274 2.68124C168.414 2.96765 168.66 2.74295 168.845 2.68915C169.223 2.57838 169.743 2.58629 170.118 2.68915C170.356 2.75561 170.006 2.85372 170.432 2.78726C170.683 2.7477 170.931 2.5768 171.186 2.52617C171.542 2.45496 171.914 2.49927 172.276 2.49768C173.14 2.49768 173.911 2.61003 174.706 2.1717C175.245 1.87896 175.448 0.991241 176.11 1.2286C176.382 0.62096 176.789 0.687416 177.18 1.08302C177.597 1.50235 177.837 1.81566 178.361 2.02929C178.575 2.1179 178.747 2.30621 178.968 2.35368C179.24 2.40906 179.471 2.1907 179.718 2.19386C179.799 2.19386 179.816 2.3426 179.905 2.36159C180.082 2.3964 180.364 2.18121 180.511 2.09417C180.824 1.90429 181.115 1.64161 181.465 1.57198C181.706 1.97075 181.788 2.59262 181.947 3.04044C182.107 3.4851 182.229 3.35534 182.534 3.50883C182.904 3.69397 183.052 3.82689 183.499 3.72562C183.77 3.66391 184.149 3.27938 184.38 3.2952C184.528 3.3047 184.602 3.43129 184.746 3.45345C184.926 3.48034 185.106 3.1876 185.289 3.29837C185.384 3.3585 185.423 3.54681 185.501 3.63542C185.653 3.80157 185.856 3.96931 186.023 4.10382C186.823 4.74469 187.923 4.23515 188.793 4.21142C189.076 4.20351 189.375 4.25415 189.654 4.20667C190.045 4.13705 190.369 3.94875 190.757 3.90919C191.113 3.87121 191.442 3.66075 191.809 3.59271C191.985 3.56106 192.156 3.44395 192.326 3.42496C192.508 3.40281 192.551 3.50567 192.713 3.55789C193.036 3.66075 193.528 3.66391 193.862 3.6022C194.208 3.53415 194.4 3.33319 194.667 3.11799C194.773 3.0357 194.885 2.95657 195 2.89169Z" fill="#D8D8D8"/>
</svg>
