<svg width="195" height="49" viewBox="0 0 195 49" fill="none" xmlns="http://www.w3.org/2000/svg">
<path d="M195 1.01463V44.4553C194.906 44.4243 194.807 44.4181 194.675 44.4568C194.165 44.6101 193.454 45.3269 193.149 45.8393C192.982 46.1196 193.021 46.3069 193.023 46.6413C193.027 47.8365 192.438 47.1956 191.849 47.0222C191.559 46.9386 191.468 47.0918 191.218 47.2374C190.979 47.3798 190.879 47.3798 190.584 47.3829C190.271 47.3829 189.967 47.4123 189.717 47.146C189.615 47.0361 189.522 46.8379 189.428 46.7141C189.346 46.6088 189.243 46.6088 189.187 46.4818C189.031 46.1335 189.285 46.084 188.935 45.8301C188.743 45.6892 188.497 45.6752 188.298 45.4925C188.079 45.8533 187.316 46.6243 186.842 46.5964C186.819 46.1505 186.436 46.5453 186.255 46.5825C186.003 46.6336 185.917 46.4338 185.742 46.4354C185.594 46.4354 185.482 46.6289 185.329 46.6181C185.227 46.6103 185.203 46.4633 185.135 46.4447C184.934 46.3889 184.73 46.4447 184.532 46.3719C184.523 45.8672 184.011 45.2634 183.789 44.8516C183.597 45.0111 183.347 45.0467 183.131 45.203C182.786 45.4554 182.584 45.9214 182.265 46.2155C181.633 46.8008 180.954 46.7961 180.169 46.793C179.886 46.7915 179.605 46.8286 179.33 46.7481C179.072 46.6738 178.764 46.3951 178.495 46.4308C178.213 46.4679 178.057 46.7961 177.748 46.7822C177.423 46.7683 177.368 46.5453 177.035 46.7652C176.711 46.2465 176.26 46.5128 175.823 46.3626C175.588 46.2806 175.362 45.8811 175.156 45.8393C174.94 45.7975 174.737 46.0127 174.515 46.0452C174.499 46.6336 173.953 47.0965 173.485 47.1925C173.325 47.2265 173.154 47.1538 172.992 47.1739C172.64 47.2234 172.316 47.4278 171.992 47.5795C171.436 47.8427 170.701 47.8551 170.142 47.5408C169.822 47.3612 169.374 46.8627 169.077 46.5964C168.773 46.3255 168.578 46.0948 168.151 46.0948C167.901 46.0917 167.605 46.3115 167.35 46.3626C166.985 46.4385 166.494 46.4803 166.133 46.3673C165.727 46.2419 165.348 45.8254 164.968 45.6241C164.731 45.5003 164.686 45.3408 164.48 45.1752C164.254 44.9909 164.053 45.0142 163.944 44.6658C163.427 44.5931 163.147 45.2123 162.634 45.2433C162.203 45.2681 161.747 45.1519 161.325 45.2479C161.169 45.8037 161.494 46.4571 160.797 46.6103C160.426 46.6924 160.055 46.6537 159.676 46.7481C159.291 46.8472 158.868 46.793 158.474 46.793C157.918 46.7915 157.407 46.5623 157.288 47.2823C157.242 47.5578 157.391 47.6538 157.137 47.7854C157.028 47.8412 156.75 47.773 156.632 47.7699C156.199 47.7684 155.9 47.7328 155.549 47.9557C155.11 48.2359 154.771 48.5967 154.197 48.3505C153.888 48.2174 153.663 47.5315 153.336 47.934C153.144 47.6538 152.449 47.7127 152.119 47.5269C151.619 47.2451 151.124 47.081 150.565 47.2281C150.177 47.3318 149.831 47.2977 149.445 47.3705C149.081 47.4386 148.757 47.6678 148.75 48.1338C148.132 48.3149 147.634 47.7606 147.025 47.7684C146.723 47.7699 146.708 47.8659 146.488 48.0207C146.29 48.1616 146.063 48.2096 145.851 48.3319C145.591 48.4821 145.522 48.767 145.249 48.9171C144.943 49.0797 144.378 48.9543 144.033 48.9466C143.452 48.9357 142.998 48.4836 142.434 48.3366C142.067 48.2406 141.903 48.0378 141.6 47.8148C141.233 47.5439 140.846 47.451 140.422 47.3798C139.69 47.259 139.482 46.3673 138.8 47.1259C138.523 47.434 138.403 47.7173 138.012 47.7808C137.76 47.8226 137.487 47.7374 137.233 47.7606C136.788 47.7993 135.028 48.4341 135.062 47.4123C134.433 47.3117 133.843 47.1677 133.281 46.7868C132.854 46.4989 132.475 46.0809 132.088 45.8115C131.83 45.6319 131.567 45.6938 131.291 45.5823C131.016 45.4724 130.88 45.2077 130.573 45.2572C130.25 45.3083 130.172 45.4833 129.785 45.378C129.633 45.3393 129.355 45.2433 129.244 45.1163C128.983 45.3346 129.062 45.8672 128.886 46.1939C128.541 46.8426 128.036 47.1181 127.407 46.9943C127.036 46.92 126.819 46.6196 126.41 46.5918C125.967 46.5639 125.665 46.4571 125.24 46.5964C124.979 46.6862 124.995 46.4447 124.81 46.4168C124.615 46.3889 124.486 46.4989 124.315 46.5082C123.94 46.5236 123.494 46.293 123.06 46.2109C122.723 46.1474 122.059 45.5359 121.733 45.635C121.568 45.6845 121.308 46.2326 121.112 46.3704C120.884 46.5298 120.584 46.5685 120.388 46.7868C120.061 47.1507 119.911 47.4278 119.446 47.6306C119.138 47.7637 118.813 47.8334 118.508 47.9758C117.912 48.253 118.336 48.0331 117.924 48.0192C117.459 48.0006 116.932 47.8644 116.485 47.7699C116.005 47.6724 115.22 47.7606 114.805 47.5315C114.618 47.4293 114.675 47.3055 114.561 47.1785C114.467 47.0732 114.446 47.0593 114.313 46.9633C113.726 46.5438 113.117 46.6057 112.435 46.5051C112.102 46.4571 111.602 46.4524 111.317 46.214C111.153 46.0747 111.164 45.9028 111.071 45.7108C110.985 45.5359 111.063 45.4956 110.896 45.4089C110.77 45.3455 110.537 45.4368 110.383 45.3826C110.027 45.2634 109.762 44.8965 109.482 44.6519C109.204 44.4104 108.915 44.2602 108.619 44.0543C108.439 43.9304 108.134 43.5171 107.918 43.4815C107.574 43.4211 107.379 43.8468 107.157 44.1178C106.848 44.494 106.218 45.4508 105.726 45.6211C105.245 45.7898 105.096 45.4322 104.721 45.2634C104.31 45.0792 103.387 45.5251 103.16 45.9864C102.515 45.765 101.8 46.2605 101.111 45.9307C100.639 45.7031 100.402 45.0467 99.9214 44.8516C99.6717 44.7525 99.3361 44.8547 99.0744 44.7943C99.0202 44.7819 98.9053 44.6565 98.8088 44.6333C98.5802 44.5698 98.2684 44.6426 98.0332 44.6472C97.5205 44.6565 97.0554 44.6441 96.6114 44.3237C96.1634 43.9985 95.8714 43.5171 95.5226 43.0774C95.2213 43.1641 95.1063 43.5031 94.7601 43.5527C94.5408 43.5821 94.1774 43.5496 94.0228 43.3468C93.8629 43.9614 92.7543 44.3732 92.2746 44.2726C91.8478 44.1859 91.5003 43.0588 90.9479 43.257C90.7048 43.3468 90.7207 44.1487 90.4352 44.3546C90.2754 44.4707 89.9424 44.5249 89.7587 44.4367C89.5711 44.3469 89.4561 44.1441 89.2698 44.0295C89.0095 43.87 88.7386 43.8004 88.4426 43.8731C88.1889 43.9366 87.9339 44.1503 87.6868 44.2788C87.3115 44.4738 87.1133 44.7897 87.0023 45.234C86.9177 45.5684 86.9798 45.7666 86.6812 46.0267C86.5028 46.1784 86.3072 46.2651 86.1513 46.3905C85.8884 46.6041 85.5171 46.9525 85.1616 46.9587C84.9462 46.9633 84.7467 46.8193 84.5234 46.7884C84.1917 46.7435 83.8231 46.8782 83.4967 46.8023C83.2694 46.7512 83.0884 46.5763 82.8783 46.4756C82.6589 46.8828 82.2533 46.793 81.9242 46.9804C81.4618 47.2466 81.6785 47.3937 81.5093 47.7854C81.3732 48.1028 80.4562 48.0517 80.1575 47.9279C79.925 47.8319 79.8193 47.6461 79.5893 47.5702C79.3 47.4742 78.9022 47.4603 78.593 47.403C78.3221 47.355 78.0063 47.163 77.7526 47.1832C77.3377 47.2219 76.9532 47.8659 76.5132 47.9418C76.2 47.9944 76.2701 47.8179 76.0124 47.7529C75.7508 47.6848 75.3001 47.9666 74.9989 47.9743C74.4941 47.9851 74.1202 47.934 73.6524 47.7653C73.1609 47.5888 72.7023 47.2745 72.1606 47.0856C71.6743 46.9169 71.4259 46.3951 70.9158 46.5902C70.6277 46.7001 70.6899 46.872 70.3172 46.7481C70.0437 46.6599 70.0688 46.6506 69.8151 46.6955C69.7794 46.7017 69.72 46.807 69.6579 46.8147C69.5085 46.8255 69.4412 46.6831 69.3143 46.6413C69.0897 46.567 68.9958 46.5685 68.8135 46.7048C68.532 46.9153 68.5624 47.177 68.1449 47.1925C67.9255 47.2033 67.6996 47.1832 67.4789 47.1832C67.2569 47.1863 67.06 47.1971 66.8473 47.1414C66.6557 47.0872 66.6121 46.9122 66.3108 46.9974C66.0201 47.0763 65.8615 47.3519 65.559 47.3922C65.3053 47.4247 65.181 47.2358 64.9736 47.2188C64.5203 47.1785 64.1398 47.7653 63.6403 47.5408C63.2597 47.3705 63.0761 46.7419 62.6413 46.7791C62.4497 46.7961 62.2476 46.9401 62.0679 46.9726C62.0005 46.985 61.9476 46.8921 61.8577 46.9014C61.7441 46.9107 61.6133 46.985 61.5089 47.0345C61.1839 47.1832 61.0517 47.3457 60.7187 47.2884C60.4954 47.2513 60.2351 47.2358 60.0039 47.1955C59.6088 47.1274 59.2877 46.7884 58.919 47.1274C58.7327 47.2962 58.6944 47.6136 58.4671 47.7421C58.3032 47.8365 57.8064 47.8829 57.6373 47.9232C57.0308 48.0672 56.3872 48.1074 56.0807 47.3984C55.6671 47.6863 55.2218 47.7684 54.7091 47.773C54.3642 47.7761 54.0365 47.7699 53.7194 47.5842C53.4142 47.4015 53.3124 47.1119 52.9556 47.2188C52.6742 47.3024 52.5077 47.6043 52.2024 47.5656C51.9448 47.5346 51.7373 47.3984 51.4519 47.3844C50.9815 47.3612 50.4318 47.16 50.0195 46.8751C49.4289 46.4679 48.9267 46.0236 48.3585 45.6334C48.1749 45.5096 47.9938 45.4461 47.7837 45.4182C47.4864 45.378 47.2433 45.3068 46.946 45.2479C46.8059 45.2201 46.6526 45.2681 46.5205 45.217C46.3765 45.1612 46.243 44.8903 46.1096 44.8624C45.8294 44.8005 45.6907 45.1674 45.4423 45.1984C45.2256 45.2263 44.9375 45.0575 44.6983 45.0327C44.3931 45.0018 44.0892 44.8717 43.7985 44.8578C43.7681 45.1488 43.6703 45.4817 43.5249 45.7263C43.3228 46.0638 43.2871 45.9647 42.962 46.0375C42.9158 46.6103 42.8735 46.6862 42.4044 46.8379C41.8375 47.0206 41.712 47.4169 41.2693 47.7854C40.8901 48.0982 40.7342 47.9093 40.3985 47.8102C39.8898 47.6616 39.311 48.14 38.7481 47.9279C38.4508 47.8133 38.2222 47.4649 37.9381 47.3705C37.5655 47.2467 37.0938 47.5609 36.7185 47.5795C36.2217 47.6043 35.6627 47.5083 35.1897 47.3597C34.9849 47.2931 35.006 47.259 34.751 47.2776C34.451 47.2962 34.2806 47.4851 33.9965 47.2776C33.785 47.1212 33.7229 46.7621 33.5155 46.6274C33.3556 46.5221 33.086 46.5949 32.9169 46.5995C32.5773 46.6041 32.3315 46.5531 32.0501 46.7342C31.9272 46.8147 31.7118 47.1367 31.5849 47.1599C31.3801 47.1971 31.2559 46.92 31.0723 46.9633C30.8146 47.0268 30.9784 47.1646 30.919 47.3798C30.845 47.6399 30.8714 47.6167 30.7551 47.8179C30.4842 48.2855 30.2001 48.1632 29.7456 48.1663C28.8576 48.1725 28.045 47.9836 27.2191 47.787C26.7421 47.677 26.1884 47.7823 25.7431 47.6724C25.4458 47.5996 24.5089 47.6414 24.3028 47.2327C24.361 47.1785 24.3927 47.112 24.4006 47.0268C24.0835 46.8968 23.7399 47.0454 23.4149 46.9726C23.1889 46.9246 23.025 46.8101 22.8215 46.6955C22.4066 46.4633 21.9653 46.214 21.4962 46.1985C20.8937 46.1799 21.1711 46.7388 20.6518 46.9153C20.4206 46.9943 20.373 46.8565 20.1577 46.8116C19.9436 46.7683 19.7242 46.8333 19.5102 46.7775C19.0702 46.6583 19.1032 46.4849 18.6341 46.8921C18.2152 47.2513 17.9879 47.1956 17.5625 47.0856C17.1951 46.9896 16.9758 47.1367 16.6388 47.4557C16.3759 47.7003 16.2834 48.0889 15.9847 48.2685C15.583 48.5115 15.1073 48.3412 14.7202 48.1616C14.2603 47.9511 13.8507 48.0672 13.3776 47.9232C12.9905 47.804 12.6337 47.5857 12.2175 47.5702C11.8673 47.5578 11.681 47.4169 11.3493 47.3798C11.2595 47.3844 11.1696 47.3875 11.0798 47.3922C10.9622 47.3968 10.8882 47.338 10.8591 47.2141C10.5433 47.1863 10.1337 47.4649 9.85089 47.5764C9.46108 47.7266 8.97877 48.0285 8.56518 47.9371C8.38018 47.8969 8.25466 47.7823 8.04852 47.7653C7.34819 47.708 6.77075 47.3287 6.6875 46.4168C6.38358 46.3719 6.18801 46.8797 5.85899 46.8193C5.70307 46.7884 5.71364 46.5809 5.55243 46.5732C5.18508 46.5531 4.73318 47.4665 4.32884 47.064C4.0487 47.6863 3.29023 47.7374 2.726 47.5408C2.726 47.2188 2.48816 47.0547 2.37188 46.8023C2.21728 46.4633 2.22519 46.0809 1.84596 46.0452C1.65568 46.0282 1.26059 46.2109 1.04124 46.2109C0.821896 46.214 0.410944 46.1196 0.192916 46.2326C0.125526 46.2666 0.0607835 46.3193 0 46.3812V0.0129471C0.594621 0.680214 1.58961 0.822647 2.36394 0.616737C2.56611 0.562553 2.75375 0.480492 2.95196 0.432499C3.17659 0.378311 3.35101 0.48978 3.55583 0.300903C3.50562 0.579578 3.58622 1.32272 3.76196 1.55649C4.29844 1.34594 4.63408 0.938763 5.2102 1.07346C5.53526 1.14777 5.39784 1.13383 5.748 1.06726C6.12856 0.997589 6.05852 1.03939 6.34394 1.22053C6.55008 1.34903 6.42851 1.35368 6.6994 1.4187C6.92667 1.47443 7.15395 1.36451 7.38783 1.4543C7.54772 1.51468 7.73271 1.66487 7.8807 1.75776C8.24673 1.98999 8.43569 2.01321 8.87307 2.00857C9.4439 1.99928 9.84692 2.12004 10.3715 2.20209C10.719 2.25628 11.3573 2.31666 11.7035 2.22532C12.3879 2.04572 12.6245 1.02082 13.2217 0.810265C13.5587 0.691051 14.1176 0.822643 14.477 0.827286C14.9237 0.833481 15.2672 0.714272 15.7033 0.574936C15.772 0.537777 15.8447 0.502171 15.9147 0.46656C16.0098 0.434052 16.0693 0.475857 16.0984 0.588875C16.2781 0.570297 16.364 0.542419 16.5635 0.478943C16.8529 0.389149 17.2678 0.389149 17.5664 0.432499C17.9774 0.48978 17.9364 0.790138 18.2575 0.983662C18.683 1.24531 19.3014 0.842777 19.7441 1.01463C20.0929 1.14777 20.0321 1.39547 20.4589 1.4187C20.8302 1.44037 21.2227 1.35057 21.59 1.40012C21.997 1.4543 21.8622 1.53636 22.1027 1.7624C22.3287 1.97295 22.5824 1.99928 22.8678 2.00857C23.0594 1.96986 23.247 1.98069 23.4307 2.03333C23.506 2.12932 23.5668 2.2377 23.6078 2.35691C23.6818 2.408 23.8483 2.36774 23.9117 2.43122C24.0372 2.55508 24.0835 2.70989 24.1984 2.83839C24.5856 3.26879 24.9913 3.23627 25.5476 3.32761C26.0087 3.40347 26.4501 3.51649 26.8954 3.57532C27.4477 3.64964 28.0754 3.36633 28.5682 3.18209C28.7215 3.12326 29.1113 2.90342 29.2659 3.00405C29.4086 3.0923 29.4285 3.27963 29.5659 3.37561C29.8975 3.60785 30.3825 3.53043 30.7432 3.60939C31.0405 3.67286 31.1383 3.79982 31.466 3.72706C31.6655 3.68526 31.9206 3.54281 32.1003 3.42051C32.2285 3.33226 32.2562 3.23318 32.3923 3.16971C32.609 3.19758 32.827 3.18827 33.0451 3.14183C33.2842 3.05978 33.5142 2.95295 33.7348 2.81671C34.0202 2.74395 34.2977 2.80587 34.5871 2.78885C34.9505 2.76872 35.376 2.66034 35.7209 2.54578C35.7209 2.54423 36.038 2.37239 36.0565 2.37239C36.2322 2.15719 36.112 1.64318 36.2943 1.47753C36.5745 1.22053 37.3792 1.44037 37.7307 1.4187C38.1852 1.39083 38.6173 1.11061 39.0745 0.977463C39.1763 0.946499 39.286 0.855167 39.4287 0.824203C39.5965 0.787045 39.792 0.85825 39.9625 0.84277C40.3734 0.805611 40.7804 0.291615 41.1359 0.370571C41.3129 0.409275 41.5693 0.739048 41.7239 0.833485C42.0318 1.02082 42.3132 1.16324 42.6079 1.36915C43.0942 1.7113 43.7456 1.74847 44.2993 1.8073C45.1198 1.8909 45.836 2.09061 46.6104 1.84909C47.1389 1.68808 47.8062 1.8073 48.3466 1.8073C48.788 1.8073 49.3469 1.69892 49.783 1.79491C50.1305 1.87231 49.9627 2.04107 50.4344 1.88005C50.9696 1.69737 51.4281 1.15396 51.9448 1.01463C52.0901 0.974373 52.3029 1.02546 52.4535 1.02391C52.7852 1.01926 52.7627 1.05333 52.9926 1.21743C53.2622 1.41251 53.1327 1.41871 53.4802 1.37381C53.8832 1.32582 54.1938 1.24065 54.5994 1.26852C54.6219 1.30722 54.643 1.34439 54.6655 1.38155C54.7725 1.40168 54.869 1.36761 54.9509 1.27162C55.2918 1.21743 55.5799 1.02082 55.9023 0.895412C55.971 0.977467 55.9961 1.07655 55.9829 1.19267C56.1745 1.20815 56.3318 1.02392 56.5141 1.05643C56.6555 1.08275 56.6053 1.15241 56.7268 1.22053C57.1986 1.47908 57.2541 1.18958 57.7588 1.05643C58.4512 0.873745 58.9507 1.17099 59.4647 1.61996C59.7845 1.90018 59.9603 1.80421 60.3289 1.70667C60.9619 1.53792 61.0464 1.57972 61.4706 2.00857C61.871 2.4049 62.1736 2.75324 62.7127 2.7873C62.8541 2.7935 63.0034 2.79659 63.1461 2.79195C63.3866 2.7842 63.742 2.59687 63.9521 2.61855C64.3446 2.6557 64.2574 2.8709 64.3856 3.27343C64.4794 3.56758 64.5904 3.86484 64.8242 3.97167C65.1889 4.14042 65.9184 3.92368 66.3029 3.95155C66.6583 3.97477 66.8195 4.19615 67.1459 4.30917C67.4023 4.40051 67.652 4.29679 67.9017 4.43922C68.1475 4.58011 68.1726 4.76434 68.462 4.7117C68.762 4.65287 69.1531 4.30142 69.4385 4.18686C69.6526 4.57391 70.1653 4.28284 70.3859 4.07074C70.7414 3.7224 70.8722 3.36012 71.3149 3.12635C71.817 2.86161 72.257 2.53184 72.738 2.2284C73.0723 2.01475 73.4145 1.96522 73.8017 1.86149C74.2919 1.7268 74.9566 1.4636 75.4481 1.65092C76.0401 1.87696 76.348 2.09061 77.0351 1.96056C77.7038 1.83671 78.7952 1.42799 78.8666 0.455723C79.3066 0.708076 79.8166 0.633762 80.3412 0.633762C80.5394 0.633762 80.8024 0.576492 81.0006 0.622936C81.2794 0.68951 81.4855 0.951145 81.7591 1.01617C82.1 1.09668 82.5492 0.867542 82.8862 0.776199C82.906 0.768459 83.4095 0.584229 83.531 0.612099C83.613 0.633774 83.6764 0.768467 83.7411 0.7855C84.0239 0.858261 84.3054 0.831944 84.5934 0.824203C84.9727 0.818008 85.0321 0.94651 85.3149 1.03321C85.6545 1.14003 86.1461 1.02546 86.5028 1.02081C86.6905 1.01926 86.8926 0.979012 87.0737 1.03939C87.1239 1.05642 87.1873 1.17564 87.2098 1.18029C87.8586 1.29176 88.5232 0.607452 89.1879 0.813362C89.7085 0.97747 89.5499 1.56887 90.2053 1.31342C90.7246 1.11061 91.1752 0.752975 91.6417 0.432499C91.6337 0.432499 92.2627 -0.0350533 92.3843 0.00210571C92.5917 0.0671272 92.5442 0.212662 92.6882 0.322582C92.93 0.503723 93.2128 0.822651 93.518 0.836586C93.7638 0.850517 93.9554 0.703438 94.1893 0.647701C94.6465 0.537781 94.6637 0.7855 95.0257 0.986763C95.1988 1.08275 95.4988 1.17719 95.6851 1.18493C96.0075 1.19731 96.281 0.929478 96.6219 1.01463C96.7898 1.05643 96.8492 1.17563 97.0051 1.22982C97.3725 1.35831 97.753 1.09359 98.1072 1.40477C98.2697 1.55185 98.3437 1.80265 98.5221 1.95902C98.7296 2.14171 99.1286 2.45753 99.3744 2.55972C99.8052 2.73931 100.434 2.34916 100.704 2.77026C100.825 2.9576 100.786 3.18829 100.963 3.37872C101.157 3.58463 101.494 3.67597 101.74 3.72706C102.632 3.91594 103.527 3.64655 104.376 3.35703C104.552 3.29665 104.751 3.18209 104.936 3.20067C105.08 3.21461 105.056 3.36632 105.198 3.3849C105.591 3.44373 106.268 2.97308 106.641 2.79349C107.259 2.49159 107.574 1.93579 108.262 1.798C108.808 1.68808 109.322 1.89555 109.816 1.98534C110.409 2.09062 111.102 2.00082 111.703 2.00547C112.142 2.01011 112.506 1.94664 112.917 1.81194C113.193 1.7206 113.773 1.33665 114.055 1.41405C114.058 1.45586 114.059 1.69273 114.063 1.73454C114.652 1.41716 115.294 1.35058 115.889 1.07346C116.065 0.991402 116.432 0.924831 116.576 0.790138C116.736 0.643063 116.714 0.409286 116.884 0.274597L117.398 0.0857124C117.711 0.043911 117.537 0.0578499 117.773 0.189445C117.933 0.274597 117.882 0.364384 118.086 0.446438C118.281 0.523849 118.668 0.457279 118.863 0.441795C119.236 0.413929 119.512 0.235882 119.899 0.242073C120.259 0.249817 120.63 0.208023 120.983 0.259113C121.276 0.305561 121.428 0.399986 121.749 0.355091C122.106 0.304001 122.816 -0.0799446 123.15 0.0702324C123.352 0.160027 123.328 0.283878 123.492 0.446438C123.717 0.666283 124.043 0.618282 124.314 0.656986C125.074 0.759167 125.827 0.740601 126.582 0.824203C127.071 0.876842 127.244 1.00688 127.752 0.773102C128.062 0.633762 128.417 0.497524 128.747 0.427856C128.833 0.409279 129.162 0.401543 129.245 0.423214C129.493 0.483597 129.53 0.680214 129.749 0.794781C129.894 0.873737 130.129 0.828846 130.285 0.86755C130.509 0.91864 130.72 1.06571 130.924 1.17563C131.008 1.22208 131.224 1.35368 131.283 1.37225C131.454 1.42334 131.707 1.33509 131.853 1.44966C131.956 1.52862 131.95 1.75002 132.034 1.86149C132.116 1.96522 132.22 2.02869 132.323 2.0999C132.822 2.43895 133.252 2.21912 133.734 2.42658C133.726 2.82911 134.004 2.79195 134.164 3.06908C134.317 3.34156 134.144 3.66667 134.277 3.91438C134.442 4.22247 134.997 4.32311 135.266 4.47019C135.552 4.62965 135.79 4.83246 136.084 4.97799C136.529 5.19938 137.246 5.75208 137.77 5.53688C138.313 5.31239 138.161 4.368 138.93 4.5352C139.661 4.69466 140.259 5.47341 141.023 5.53224C141.68 5.58333 141.637 4.91761 141.845 4.35562C141.929 4.13113 142.059 3.52733 142.261 3.39728C142.441 3.27807 142.811 3.36943 143.02 3.37098C143.618 3.37407 144.173 3.32761 144.731 3.5521C145.015 2.86935 145.376 2.56746 145.979 2.58758C146.504 2.60926 146.844 2.52257 147.266 2.15564C147.935 1.57507 148.922 1.8073 149.743 1.8073C150.06 1.8073 150.657 1.93116 150.948 1.78098C151.397 1.55185 151.471 0.672474 151.881 0.446438C152.13 0.308651 152.655 0.437157 152.944 0.437157C153.762 0.437157 154.368 0.595058 155.044 1.08274C155.702 1.55648 155.929 1.27163 156.593 1.05643C156.969 0.934124 157.281 1.02856 157.662 0.833485C158.071 0.62603 158.355 0.643051 158.72 0.548615C159.225 0.41547 159.295 0.231247 159.788 0.437157C159.974 0.514565 160.191 0.581127 160.383 0.61364C160.549 0.643055 160.788 0.553268 160.936 0.661644C161.226 0.872196 161.165 1.33045 161.544 1.42644C161.971 1.53326 162.115 0.979019 162.469 1.03785C162.666 1.07036 163.025 1.637 163.177 1.8073C163.435 2.09681 163.538 2.38168 163.893 2.31975C164.125 2.2764 164.418 2.055 164.618 1.89864C164.714 1.82587 164.833 1.60139 164.964 1.5921C165.117 1.57816 165.232 1.76549 165.384 1.77478C165.558 1.78872 165.77 1.62926 165.935 1.55649C166.36 1.37226 166.345 1.51933 166.717 1.61686C167.018 1.69737 167.519 1.66022 167.813 1.56887C167.969 1.51933 168.039 1.41405 168.213 1.42334C168.302 1.43108 168.366 1.57816 168.465 1.61532C168.813 1.74847 169.257 1.75002 169.618 1.83981C169.614 2.62319 170.611 2.39096 171.002 2.29807C171.335 2.21601 171.671 2.16183 171.983 2.00547C172.254 1.87078 172.461 1.51469 172.735 1.4218C172.949 1.35058 173.177 1.39238 173.402 1.31807C173.627 1.2453 173.924 1.00224 174.154 1.00224C174.591 1.00534 175.318 1.66951 175.351 0.661644C175.677 0.548626 176.051 0.658539 176.391 0.593517C177.076 0.460373 177.669 0.29007 178.351 0.291618C178.658 0.291618 178.986 0.242077 179.315 0.237434C179.757 0.231239 179.758 0.208023 179.912 0.63068C180.129 1.22519 180.359 1.78872 180.997 1.81194C181.555 1.83052 182.217 2.27485 182.538 1.44038C183.01 1.43109 183.492 2.13397 183.832 2.43896C184.14 2.71144 184.175 2.93438 184.356 3.2595C184.515 3.54282 184.771 3.5521 185.008 3.75182C185.857 4.47947 187.01 5.49973 188.141 5.34491C188.714 5.26596 188.681 4.94702 188.957 4.48875C189.126 4.20853 189.674 3.69453 189.917 3.5939C190.185 3.48398 190.432 3.56139 190.69 3.32761C190.756 3.26878 190.822 3.04894 190.877 3.01643C191.054 2.92044 191.258 2.94522 191.445 2.85697C191.698 2.73776 191.919 2.56281 192.085 2.31201C192.183 2.16183 192.188 1.97605 192.316 1.85529C192.47 1.70821 192.828 1.67105 193.01 1.57352C193.326 1.40167 193.619 1.17564 193.936 1.00689C194.029 0.957344 194.174 0.836586 194.279 0.836586C194.432 0.836586 194.453 0.948044 194.557 0.982105C194.707 1.02855 194.853 1.01927 195 1.01463Z" fill="white"/>
</svg>
