<svg width="545" height="948" viewBox="0 0 545 948" fill="none" xmlns="http://www.w3.org/2000/svg">
<path d="M513.204 0H0V948H505.635C505.851 947.658 506.198 947.253 506.654 946.734C509.17 943.787 511.209 942.49 511.534 939.366C511.924 936.138 511.946 934.966 518.496 933.316C517.889 933.015 517.26 932.05 516.436 931.738C521.771 929.331 533.288 926.165 535.413 922.741C536.173 921.527 535.544 919.887 535.479 918.631C535.413 916.151 536.454 914.418 537.365 912.062C538.819 908.565 541.53 905.12 542.549 901.55C543.005 899.993 541.595 899.163 541.443 898.052C541.183 896.682 541.833 896.164 543.373 894.617C546.258 891.67 543.07 890.964 540.38 888.235C538.623 886.419 537.018 884.738 534.264 883.191C532.963 882.455 529.709 881.479 528.82 880.618C527.605 879.476 528.798 878.335 528.495 877.121C527.714 873.986 525.545 875.149 522.465 873.281C520.144 871.869 519.038 869.524 517 867.926C514.549 865.965 511.621 864.034 509.061 861.917C506.133 859.489 501.405 856.967 502.381 854.207C503.01 852.453 505.83 851.01 506.545 849.298C507.109 848.011 506.741 846.621 506.741 845.292C506.741 841.93 506.329 841.774 502.555 839.377C497.892 836.43 501.015 833.036 499.345 829.881C497.545 826.446 491.45 822.669 496.026 818.767C497.436 817.563 500.82 817.013 501.861 815.944C502.902 814.844 501.969 812.385 501.969 811.264C501.926 807.518 501.232 803.636 502.164 799.931C502.707 797.586 504.246 795.49 504.377 793.155C504.789 787.053 501.665 780.712 499.757 774.734C499.475 773.811 498.521 771.725 499.909 770.916C501.102 770.21 506.654 770.065 508.671 769.286C510.515 768.549 511.469 767.667 512.705 766.723C513.464 766.183 513.659 765.446 514.484 764.928C515.221 764.419 517.845 764.035 518.301 763.578C519.906 762.011 518.626 761.441 520.969 760.144C523.289 758.826 527.323 757.476 530.49 756.636C525.545 752.993 527.974 746.538 528.625 742.138C528.885 740.301 528.104 737.458 528.82 735.766C529.341 734.521 530.685 733.67 530.794 731.989C530.946 728.637 530.946 727.039 527.41 724.268C525.718 722.929 524.265 721.84 523.723 720.241C523.116 718.56 524.569 716.879 522.205 715.613C520.643 714.752 517.976 714.783 516.544 713.838C515.156 712.936 514.635 711.503 513.03 710.445C510.384 708.681 507.456 706.896 506.654 704.81C506.198 703.575 506.741 701.987 506.719 700.742C506.676 699.372 508.541 697.369 508.259 696.144C507.868 694.64 503.639 693.757 501.839 692.709C499.822 691.547 498.195 690.115 497.371 688.683C496.091 686.524 494.617 684.698 494.747 682.384C494.942 678.513 492.079 679.291 487.459 676.79C482.232 673.947 486.006 668.54 482.774 665.032C481.82 664.015 480.085 663.382 479.066 662.355C477.005 660.279 479.022 659.262 479.89 657.145C480.801 654.872 480.367 654.385 478.09 652.589C475.487 650.566 474.446 649.528 472.862 647.349C470.672 644.298 466.117 643.052 465.271 639.731C464.317 635.902 465.163 631.201 469.587 627.839C470.607 627.04 472.147 626.282 472.928 625.483C474.576 623.791 473.361 623.366 473.47 622.048C473.622 619.401 475.66 617.803 477.677 615.261C479.087 613.497 479.456 612.552 482.601 611.224C485.485 609.999 491.407 609.626 493.532 608.308C495.484 607.094 494.66 605.879 494.66 604.406C494.617 601.593 496.46 599.808 501.904 598.49C508.215 596.975 518.084 597.069 518.735 592.233C519.168 589.088 512.011 585.124 511.36 581.627C510.818 578.565 511.491 575.307 511.556 572.256C511.556 571.062 511.165 570.014 511.946 568.862C513.074 567.191 516.349 566.081 516.566 564.151C516.761 562.594 514.158 561.598 514.245 560.249C514.375 558.744 517.759 556.565 518.8 554.977C520.34 552.704 526.629 550.868 525.935 548.74C525.458 547.266 521.684 546.748 521.316 545.264C520.665 542.596 528.104 538.207 530.23 535.82C533.678 531.949 536.715 527.756 535.609 523.491C534.893 520.71 529.536 519.226 529.709 516.611C529.774 515.355 531.379 514.525 530.664 513.155C529.753 511.495 525.87 510.312 523.463 509.149C518.084 506.544 516.305 504.158 516.305 500.494C516.305 499.176 516.566 498.045 515.785 496.779C515.199 495.793 513.616 495.648 513.746 494.257C514.158 490.822 521.294 489.992 515.85 486.515C510.276 482.956 506.155 481.731 508.259 477.072C511.621 469.724 517.173 462.356 521.185 455.268C522.595 452.798 523.463 450.681 525.935 448.346C527.085 447.236 528.148 445.897 529.449 444.87C530.533 443.988 533.223 443.832 533.353 442.608C533.505 441.186 527.736 438.529 525.979 437.346C521.945 434.617 518.041 433.309 518.908 429.853C519.494 427.498 521.858 424.914 521.316 422.527C521.034 421.24 519.168 420.306 518.843 419.092C518.431 417.452 520.839 415.916 521.251 414.204C521.684 412.512 521.359 410.478 521.229 408.766C520.99 404.843 516.674 404.75 512.141 402.228C508.064 399.945 508.91 397.579 510.341 394.984C512.315 391.497 507.044 391.975 503.639 388.955C502.186 387.668 501.926 387.139 501.839 385.416C501.774 384.005 501.796 382.593 502.164 381.182C502.511 379.688 504.919 377.405 504.593 375.962C504.355 374.769 502.316 373.856 501.839 372.683C501.275 371.292 501.6 369.186 501.839 367.774C502.186 365.522 504.94 363.748 505.721 361.662C506.415 359.783 505.136 359.503 503.639 357.729C502.034 355.861 502.62 355.248 503.639 353.235C505.201 350.111 505.786 347.071 507.001 343.947C508.736 339.516 513.855 339.516 521.294 337.336C527.67 335.468 523.311 333.289 527.215 331.276C529.015 330.332 532.529 330.799 534.221 330.083C536.975 328.931 535.24 327.26 534.329 325.579C532.529 322.434 533.7 321.095 535.283 318.138C536.715 315.429 536.498 312.731 535.283 310.012C534.524 308.279 532.529 306.774 533.114 304.958C534.025 302.198 538.819 300.018 539.903 297.102C541.183 293.688 545 289.495 545 286.071C545 282.978 538.558 281.038 535.413 278.474C532.138 275.828 534.893 272.912 533.245 270.318C532.03 268.367 528.343 267.567 526.391 265.772C524.309 263.79 525.155 261.185 523.051 259.213C521.554 257.792 518.843 256.868 516.869 255.612C514.614 254.17 512.315 252.426 510.384 250.911C509.105 249.936 508.259 248.576 506.719 247.715C505.765 247.196 502.88 246.646 502.294 246.138C501.275 245.276 502.034 243.969 501.47 242.972C500.646 241.488 498.152 240.046 495.961 239.06C494.486 238.396 492.534 238.105 491.19 237.368C487.719 235.438 486.006 232.221 483.837 229.917C479.846 225.704 476.224 222.394 479.261 217.692C481.777 213.822 487.351 210.688 490.17 206.848C491.775 204.648 490.799 204.243 489.151 202.375C486.527 199.448 485.746 196.563 485.355 193.222C484.987 190.202 483.772 186.206 485.052 183.228C486.049 180.955 487.09 180.717 491.341 179.191C498.065 176.794 501.861 175.86 501.926 171.937C502.034 168.284 501.991 164.631 501.969 160.999C501.904 156.298 502.121 155.136 512.25 153.787C516.501 153.206 519.06 153.475 518.995 151.244C518.995 150.673 517.845 149.999 517.52 149.449C516.436 147.581 516.219 145.952 516.284 144.011C516.414 140.514 514.115 137.992 513.811 134.692C513.551 131.61 514.353 130.209 517.303 127.625C518.539 126.525 519.711 125.072 520.47 123.847C521.88 121.533 522.704 119.177 524.179 116.863C524.829 115.835 526.261 115.369 526.044 113.926C525.805 112.546 524.591 111.705 523.528 110.429C520.904 107.409 520.99 105.012 523.051 101.826C528.56 93.285 540.359 87.2347 537.734 78.2995C536.715 74.8956 531.423 72.4049 530.468 69.3331C528.82 63.8641 543.135 60.0348 539.014 55.3648C537.149 53.2374 534.069 51.0582 531.705 49.0034C528.885 46.5439 522.899 43.6692 521.381 41.0436C519.494 37.7332 525.328 33.9662 527.15 30.7388C530.425 25.0414 519.168 26.2141 514.744 21.6168C512.25 19.0846 515.828 17.9327 515.958 15.743C516.024 14.1241 514.093 12.7127 513.876 10.99C513.551 8.105 512.575 4.90854 512.553 2.08582C512.553 1.70184 512.77 0.944368 513.204 0Z" fill="black"/>
</svg>
