<svg width="177" height="37" viewBox="0 0 177 37" fill="none" xmlns="http://www.w3.org/2000/svg">
<path d="M13.6955 36.7045C13.805 36.6576 14.2455 36.7717 14.4362 36.7519C14.2201 37.2482 13.3005 36.8749 13.6955 36.7045ZM33.2562 0.662906C33.0979 0.785611 32.9397 0.908317 32.7815 1.03102C33.2311 1.11075 33.8355 1.02069 34.2528 1.13717C34.321 1.15673 34.1439 1.512 34.3054 1.52787C34.467 1.54363 34.4358 1.05811 34.6707 1.00618C34.9342 0.949403 36.1407 1.28765 36.5586 1.27945C38.1213 1.24667 39.6975 0.969399 41.2634 1.17104C39.6468 1.53024 41.2758 1.89583 41.7286 1.74016C41.8289 1.70411 41.8129 0.801495 43.4348 1.02877C44.4656 1.17299 43.5136 2.46341 45.2336 1.81694C43.911 0.914204 45.2116 0.977472 46.2484 0.947464C46.4272 0.942147 47.8707 1.07778 48.5083 1.0378C48.7265 1.02389 49.0589 0.551103 49.3483 0.538696C49.5474 0.530511 49.6981 0.788989 49.9938 0.775827C51.3724 0.717566 52.7281 0.697468 54.1091 0.78486C53.3021 1.99983 54.7426 1.30266 54.8073 1.36075C55.1363 1.69062 53.6483 1.78452 54.2367 1.99084C55.0591 1.9532 55.8815 1.91556 56.7039 1.87792C56.029 1.72875 57.5975 0.854804 57.8862 1.25235C57.7591 0.178759 61.6345 2.18676 62.2244 1.82824C62.3473 1.75251 61.543 1.2219 63.4087 1.46464C63.6108 1.49161 63.5343 1.81552 63.6403 1.78533C63.7038 1.76717 64.0879 0.73765 64.4971 1.30655C64.6466 1.51419 63.6905 2.19036 65.7901 1.91857C64.954 0.870723 68.7015 1.3511 69.391 1.61369C69.2533 1.47292 69.1155 1.33214 68.9778 1.19137C69.6594 1.57113 69.7824 1.21486 69.9359 1.23428C70.5547 1.31226 71.4053 1.6713 71.9818 1.63853C72.6563 1.60084 72.6586 0.949175 73.4449 1.20266C73.2583 1.05888 73.0718 0.915096 72.8852 0.771312C73.4283 0.80594 73.9714 0.840569 74.5144 0.875198C73.2568 1.73782 74.7858 0.916353 74.8865 0.897782C75.0471 0.866387 74.8163 1.21954 75.085 1.17556C75.1128 1.16833 75.0726 0.835763 75.4867 0.798413C76.352 0.72151 76.2153 1.13964 76.5785 1.13491C76.6118 1.13276 76.4953 0.833156 77.1228 0.762279C79.117 0.536643 77.1128 0.991872 77.0363 1.03328C76.9358 1.0879 77.6196 2.33994 75.9256 1.89599C76.4944 2.03732 76.5516 2.59137 76.6157 2.60512C76.6724 2.61643 77.6579 2.53839 77.7122 2.5193C78.1967 2.33116 77.7704 1.95254 77.8648 1.8847C77.942 1.83 79.1294 2.32341 79.4076 1.1846C79.9757 2.23502 79.0808 2.13878 78.1281 2.30024C77.9891 2.51579 79.0353 2.72539 79.0903 2.72482C80.4397 2.7229 79.6926 1.85887 79.9876 1.30655C80.1426 1.01757 80.6924 1.60704 80.1848 0.832289C81.4096 0.750509 80.6668 1.19946 80.7459 1.2659C80.8653 1.36351 81.2939 1.14147 81.3475 1.17105C81.4262 1.21483 81.1525 1.48307 81.463 1.57756C81.5146 1.59129 82.0148 1.1297 81.3698 0.909074C82.2315 0.974694 82.1605 0.581094 82.4528 1.3743C83.0464 -0.126349 82.8835 2.26132 83.1172 2.34541C83.7387 2.56705 83.5584 1.38885 83.5912 1.33139C83.8174 0.963209 85.5378 1.36795 85.9639 1.19815C85.7958 2.04676 84.6 1.20741 84.3326 1.37204C83.4412 1.91976 85.589 1.79632 84.9416 2.86258C85.213 2.56974 85.4845 2.2769 85.7559 1.98407C86.2536 2.66963 85.5476 2.96857 86.8869 2.71804C87.1059 2.12631 85.94 2.8115 86.1739 2.34541C86.3117 2.07186 87.0883 2.01311 87.1036 1.86889C87.1189 1.69529 86.417 1.90103 86.5277 1.63402C86.7692 1.05781 89.3293 1.60636 87.3804 1.92083C87.8532 1.91227 88.1267 2.77811 88.5 2.76888C88.5559 2.7675 88.6141 2.74649 88.6755 2.69998C88.7894 2.61331 88.621 2.33775 88.5 2.04184C88.3964 1.78857 88.3275 1.52038 88.5 1.34299C88.665 1.17335 89.0508 1.08673 89.8382 1.17556C89.893 1.71676 88.8096 1.33538 88.7815 1.37656C88.7419 1.43651 88.938 2.65776 88.9719 2.71804C89.0919 2.91651 91.7192 2.26255 92.2743 2.87613C92.0546 2.17029 94.2596 2.75018 94.4998 2.53511C94.5637 2.47574 94.3247 2.04338 94.3931 1.99762C94.8195 1.72525 95.9728 2.49705 96.5078 2.51705C97.1066 2.53971 97.0307 2.16629 97.0642 2.167C97.3277 2.18783 97.1172 2.44097 97.2782 2.44026C97.5215 2.43905 99.1936 2.49082 99.2775 2.438C99.3021 2.42154 99.0291 1.99497 99.3937 1.91406C99.4568 1.90004 99.4168 2.40578 100.496 2.18732C101.796 1.92457 99.5935 1.5584 100.134 1.02877C100.969 1.78288 100.942 1.03559 101.168 1.09426C101.247 1.11564 101.83 1.751 102.464 1.7108C102.009 1.81394 101.554 1.91707 101.099 2.0202C101.546 2.13161 102.415 1.99371 102.783 2.11957C102.963 2.18083 102.815 2.70278 103.205 2.68868C103.288 2.68285 103.617 1.41122 102.594 1.98181C102.512 1.52775 102.999 1.82343 103.225 1.69499C103.259 1.67498 103.394 0.916423 103.682 1.38785C103.751 1.50384 102.997 3.71661 104.941 2.11505C105.004 2.06344 104.786 1.78632 104.847 1.72887C104.889 1.68997 105.385 1.80206 105.44 1.76275C105.496 1.72056 105.257 1.41802 105.323 1.3585C105.666 1.05174 106.115 2.25165 105.409 2.16022C105.645 2.30852 105.881 2.45682 106.117 2.60512C105.864 1.70079 106.487 2.35068 106.813 2.32283C108.905 2.14483 107.504 1.55667 107.864 1.25235C108.442 0.763742 108.001 2.31132 108.859 1.84631C108.939 1.80283 107.901 1.14591 109.927 1.51658C109.628 1.54218 109.329 1.56777 109.03 1.59337C109.203 2.46806 110.11 1.53337 110.18 1.5211C110.976 1.401 110.438 1.71632 111.62 1.2659C111.725 1.22546 111.955 1.44133 112.181 1.33365C113.116 0.890037 110.946 1.06446 110.887 0.710339C110.859 0.536823 113.192 0.580521 113.272 0.662913C113.613 1.02814 112.215 0.823776 112.481 1.27719C112.578 1.43819 115.904 1.10753 116.571 1.28397C117.341 1.48929 117.688 2.6752 117.693 1.34269C117.91 2.65067 118.102 1.75826 118.201 1.76726C119.391 1.88834 119.394 1.90154 120.415 1.7763C120.64 1.74908 120.831 2.14593 120.91 2.07892C120.957 2.03845 120.87 1.61375 121.097 1.48271C121.413 1.30344 123.311 1.74027 123.452 1.97504C123.594 2.20981 122.651 2.07685 122.82 2.46285C123.502 2.50187 124.157 2.40636 124.843 2.44704C125.129 2.46509 124.982 2.73526 125.105 2.74063C125.158 2.74395 126.143 2.50604 126.101 2.40639C126.004 2.17466 122.961 2.33043 123.762 1.8576C123.917 1.76624 124.463 2.38881 124.376 1.63176C127.094 1.8034 129.812 1.97504 132.53 2.14667C130.968 2.71291 129.211 2.2065 127.575 2.25959C127.351 2.26615 126.593 2.19313 126.685 2.57577C128.076 2.67483 129.805 2.47546 131.141 2.72482C131.184 2.73307 131.027 3.07685 131.187 3.13133C131.486 3.23301 132.461 2.67856 132.624 2.82193C132.652 2.85533 132.098 3.30854 132.267 3.59656C132.699 4.33568 132.809 2.69865 133.181 2.71805C133.469 2.73374 135.403 3.52527 135.885 3.02519C136.397 2.49216 134.46 2.71573 134.603 2.27992C135.914 1.84195 137.241 2.30964 138.48 2.25508C138.502 2.25369 138.312 1.91216 138.589 1.86438C139.069 1.78122 139.196 2.26566 139.43 2.34315C139.682 2.42565 140.575 2.35623 140.694 2.53286C140.71 2.55602 140.529 3.03652 140.501 3.05003C140.112 3.24807 139.974 2.62442 139.939 2.61642C139.806 2.59277 139.675 2.83164 139.554 2.81742C139.354 2.79369 139.244 2.57269 138.981 2.55318C138.799 2.5389 138.974 2.96329 138.799 2.94389C138.735 2.93504 138.041 1.96598 137.976 2.95518C137.956 3.26707 143.631 3.66759 144.199 3.41815C143.712 3.29921 143.226 3.18026 142.739 3.06132C143.727 3.35085 144.914 2.56048 144.998 3.7298C148.663 3.82541 152.327 3.92102 155.991 4.01662C156.645 4.11624 156.287 4.86766 157.363 4.64897C157.085 4.40958 156.807 4.17019 156.529 3.9308C157.08 4.09874 159.525 4.42682 159.921 4.27182C159.972 4.2515 160.043 3.57143 160.654 3.513C161.196 3.46141 161.283 3.97096 161.573 4.06856C161.816 4.1491 162.09 4.01559 162.162 4.04372C162.217 4.06625 162.239 4.37783 162.373 4.43216C162.793 4.60015 162.452 3.72284 162.87 4.73027C162.768 4.76866 162.667 4.80706 162.565 4.84545C163.073 4.99126 163.767 5.44862 163.019 5.67428C162.89 5.71323 163.001 5.41179 162.905 5.4123C159.147 5.46832 162.148 6.05431 163.464 5.5862C163.803 6.03286 165.698 5.76015 165.761 5.84817C165.848 5.97566 165.524 6.33264 165.949 6.64087C166.039 6.70612 168.573 6.45601 167.66 7.04963C167.472 7.17209 166.257 7.04343 165.964 7.06093C166.653 8.00763 168.268 6.65128 168.45 6.68603C169.183 6.83357 167.042 7.50648 168.693 7.61649C169.962 7.7009 168.771 7.06878 169.259 6.79895C169.533 6.64755 170.97 7.34393 170.931 6.44213C171.424 6.34583 171.135 6.82333 171.196 6.85767C171.256 6.88786 172.225 6.6179 172.54 6.80799C172.578 6.83162 172.458 7.30036 172.497 7.33871C172.574 7.40437 173.509 7.31067 173.546 7.27096C173.57 7.24337 173.348 6.83299 173.439 6.73346C173.546 6.6187 174.446 6.71527 174.495 6.59796C174.565 6.42059 173.455 6.53744 173.64 6.07853C174.152 6.19408 174.986 5.88789 175.324 5.51845C175.241 5.62408 174.744 5.63924 174.572 5.60201C174.653 4.9299 175.719 4.93906 175.355 5.47102C175.586 5.18533 175.428 5.03377 175.559 4.76415C175.593 4.69585 175.922 4.68178 175.985 4.56541C175.994 4.54222 175.654 4.28864 175.722 4.15213C175.845 3.90544 176.843 3.96094 176.925 4.02566C177.154 4.20906 176.341 4.43097 176.273 4.71446C176.263 4.758 176.955 5.31355 176.966 5.36262C177.006 5.88905 176.236 5.50968 176.324 5.98368C176.515 6.0838 176.705 6.18392 176.896 6.28404C176.161 6.76404 174.802 6.51722 174.452 7.06319C175.541 6.90072 176.68 6.91993 176.678 8.14947C176.677 8.66729 176.208 8.97085 176.226 9.10251C176.295 9.57361 176.947 9.06183 176.971 9.0867C176.991 9.11541 177 9.14337 177 9.17057C177 9.17058 177 9.17059 177 9.17061C177 9.44643 176.07 9.64505 176.024 9.77099C175.946 9.99471 176.359 10.9156 176.359 11.1192C176.344 11.1602 175.682 11.3781 175.906 11.7335C176.132 12.0926 176.711 12.1005 176.731 12.1378C176.842 12.3526 175.829 12.5484 175.798 12.6753C175.782 12.7394 176.327 13.1334 176.343 13.2466C176.356 13.3603 175.942 13.6083 175.779 13.9671C175.658 14.2336 176.012 14.4379 175.95 14.4797C175.905 14.5074 174.947 14.5029 174.9 14.5497C174.83 14.619 175.054 14.9376 175.022 15.0172C174.976 15.1318 174.666 15.0168 174.706 15.1347C174.737 15.2225 175.936 16.3206 175.928 16.6139C175.914 17.1142 174.645 15.9631 175.826 17.9373C175.834 17.9503 176.122 17.81 176.13 17.8221C176.307 18.1854 175.385 18.7441 176.513 18.6464C174.416 19.2773 176.252 19.3985 175.941 20.2409C175.822 20.5647 175.009 20.6982 175.005 20.7467C175.084 21.1575 175.343 20.8389 175.431 21.0403C175.479 21.1529 174.752 21.5872 174.916 21.8692C175 22.0145 175.773 21.9628 175.804 21.9911C176.11 22.2585 175.735 22.5465 175.802 22.7364C175.847 22.8637 176.313 22.8738 176.325 22.8967C176.345 22.9444 175.712 23.4589 175.58 23.6397C175.48 23.7789 175.856 23.9969 175.786 24.0575C175.365 24.4203 174.469 23.4951 175.332 24.7915C175.385 24.871 175.712 24.8389 175.721 24.8548C175.923 25.2223 175.322 25.254 175.214 25.5549C175.03 26.0733 175.894 25.7842 175.175 26.1488C175.714 26.4878 176.015 26.4737 176.646 26.3792C174.899 26.6428 174.282 27.9848 176.222 27.951C175.605 27.9301 175.673 28.6875 175.489 28.7008C175.375 28.7082 174.48 27.9551 174.89 29.6448C174.942 29.8559 175.485 29.5877 175.315 30.0197C174.011 29.9094 175.287 30.2946 175.289 30.3517C175.272 31.347 172.085 30.5318 171.537 30.6453C170.902 30.7769 170.337 31.5612 170.199 31.5622C169.744 31.5625 170.122 31.1643 170.02 31.0179C169.917 30.8728 168.625 31.6357 168.56 31.5938C168.31 31.4255 168.564 30.9536 168.538 30.9298C168.228 30.6407 166.492 31.0101 166.006 30.9005C166.022 31.2066 166.997 31.2309 166.388 31.7225C165.679 32.2957 165.638 30.9463 165.62 30.8869C162.37 30.8997 159.121 30.9125 155.871 30.9253C155.912 31.6432 158.036 31.1018 158.084 31.1963C158.368 31.7559 154.779 31.7456 154.339 31.4921C154.673 31.6472 155.008 31.8023 155.342 31.9574C154.771 32.7828 153.507 31.7104 152.681 32.0748C152.415 32.1929 152.927 32.5115 152.916 32.5333C152.616 32.8538 152.135 32.6069 152.495 32.1764C151.763 32.5888 151.87 32.1338 151.308 32.0997C151.279 32.0982 151.52 32.4313 151.076 32.5694C150.867 32.6338 149.757 32.6349 149.608 32.9262C149.547 33.0489 150.11 34.3405 150.18 33.2288C151.388 33.7708 150.566 32.7223 151.035 32.7478C151.107 32.7536 150.942 33.3741 152.124 33.0821C151.899 34.201 150.537 33.3643 150.304 33.4999C149.823 33.7785 151.806 34.3563 152.17 33.484C152 34.3573 152.31 33.6017 152.752 33.6376C153.236 33.6765 153.025 33.9366 153.287 33.938C154.003 33.9445 153.706 33.3281 154.296 33.8838C153.721 32.1635 155.307 33.6568 155.769 34.1074C155.017 34.1947 154.265 34.282 153.513 34.3693C153.556 34.4597 153.599 34.55 153.642 34.6403C153.444 34.6275 153.246 34.6147 153.048 34.6019C153.08 34.5154 153.111 34.4288 153.143 34.3422C152.122 34.9051 151.873 34.2725 151.789 34.2654C150.717 34.1921 149.479 34.1975 148.395 34.1954C148.233 34.1951 148.344 34.7582 147.159 34.3174C146.781 34.177 147.138 33.739 146.709 33.8047C146.173 34.995 146.183 34.0456 146.024 34.0441C145.567 34.0443 145.287 34.3391 145.245 34.3422C144.68 34.3882 143.852 34.339 143.231 34.3829C143.22 34.3874 143.543 34.7531 143.139 34.6449C142.998 34.6062 141.728 33.0452 140.618 33.5541C140.906 33.6594 141.195 33.7648 141.484 33.8702C141.144 33.723 138.765 34.1163 139.347 34.5342C139.703 34.7896 140.574 33.7834 140.669 34.751C139.878 34.4614 135.505 34.8945 135.165 34.6697C135.117 34.6376 135.407 34.3237 135.342 34.2835C135.292 34.2529 134.29 34.3273 134.157 34.2067C134.078 34.1351 134.521 33.9427 134.485 33.8296C134.453 33.7489 133.202 33.6145 133.131 34.008C133.438 33.85 134.301 33.988 133.849 34.3196C133.79 34.3608 133.489 34.107 133.418 34.1593C132.761 34.6414 134.723 34.5257 135.027 34.5297C133.794 35.031 131.888 34.44 130.46 34.7668C129.883 34.4393 131.316 34.2658 130.663 33.9944C129.309 33.432 130.303 34.4473 130.261 34.489C129.924 34.8195 128.778 33.0486 128.778 34.3964C128.287 34.1935 128.446 34.0236 127.753 34.2C127.844 34.2933 127.935 34.3866 128.026 34.48C127.257 35.2607 125.629 33.291 125.751 33.1408C126.079 32.7386 126.927 33.3659 126.999 33.3508C127.107 33.3285 127.403 31.9608 128.576 33.1837C129.056 32.2664 126.717 32.5646 127.781 31.9393C127.062 32.0419 124.104 31.4034 123.679 31.8061C123.628 31.8586 123.865 32.7726 123.134 32.3074C122.787 32.0859 123.623 32.0753 123.465 31.867C122.976 31.228 116.333 31.6368 115.071 31.6706C114.989 31.6716 115.019 31.3879 114.939 31.3905C114.692 31.3984 113.791 31.8214 113.348 31.6909C114.265 32.2159 112.484 32.2568 112.031 32.199C111.344 32.111 111.387 31.6119 111.09 31.5057C109.945 31.0965 108.171 32.2817 107.282 31.1737C107.331 32.2734 105.744 30.6346 105.022 30.6249C104.457 30.617 103.636 31.3447 104.4 31.788C103.424 31.7374 102.396 31.9425 101.481 32.0093C101.329 32.0205 101.538 31.6954 101.279 31.7248C101.256 31.7298 101.224 32.0484 101.002 32.0816C99.1716 32.3593 100.062 31.6822 99.7198 31.4831C99.5281 31.3716 99.3867 31.3162 99.2829 31.2979C100.35 31.2356 101.58 31.1105 101.909 31.1014C101.629 30.3978 99.5448 31.2366 98.9345 31.0472C98.9134 31.0404 98.9871 30.6525 98.9656 30.6498C98.9651 30.6498 98.9647 30.6498 98.9642 30.6498C98.7355 30.62 97.2788 30.7632 97.5787 31.2257C97.6592 31.3492 98.3297 31.349 99.1249 31.307C98.9097 31.3937 99.0704 31.8282 99.0324 31.8467C98.5718 32.0615 97.4435 31.6374 97.0433 31.5802C96.9518 31.5677 96.9583 31.846 96.9433 31.8467C96.5793 31.7835 96.7287 30.9887 96.3552 31.8083C95.696 30.8177 97.5907 31.6613 97.4572 31.0179C97.3546 30.5226 93.1463 30.7886 93.1588 31.5689C93.1443 31.4855 93.0864 31.3819 92.9677 31.264C92.7045 31.0022 91.5332 31.0841 91.331 31.2279C91.2969 31.2562 91.3106 32.0136 91.2683 32.0206C91.1624 32.038 89.7308 31.4442 89.1961 31.8919C89.4848 31.998 89.7736 32.1042 90.0623 32.2103C88.3185 32.2169 88.588 32.4423 89.169 32.6688C89.1981 32.6708 89.2264 32.6996 89.2541 32.7026C89.7045 32.8701 90.2818 33.0313 90.2906 33.0911C90.3106 33.2296 89.2264 33.3308 88.5 33.2313C88.0308 33.167 87.7108 33.019 87.9341 32.7433C87.9688 32.7012 88.2509 32.7376 88.5 32.7496C88.8198 32.7651 89.0855 32.7406 88.7045 32.4587C88.6751 32.4369 88.5988 32.4294 88.5 32.4294C88.2008 32.4297 87.6954 32.5003 87.6606 32.4587C87.4836 32.2482 88.0382 31.9981 88.5 31.7247C88.8442 31.5208 89.1369 31.3041 89.0367 31.0811C88.8715 31.2574 88.6897 31.3382 88.5 31.3749C88.1547 31.4416 87.7834 31.3619 87.4385 31.4447C87.1953 31.5027 87.1356 31.8825 87.1056 31.8896C86.6573 31.9888 86.9089 31.5906 86.7593 31.6005C86.6789 31.6074 85.7955 32.4548 85.9625 31.2866C83.0518 32.146 85.1573 32.1451 86.9429 32.0793C86.3787 32.5048 85.2725 32.299 84.7762 32.3978C84.5981 32.4336 84.7037 32.8234 84.4028 32.9014C83.7836 33.0617 80.8274 32.614 80.0572 32.5084C80.5302 32.3707 80.3919 31.9461 80.0268 31.9754C79.6617 32.005 79.9684 32.5717 79.8972 32.6326C79.8208 32.6957 78.1079 32.4282 77.8229 32.5016C79.1125 32.2964 78.8216 31.873 77.7271 31.8286C77.8853 31.7067 78.0435 31.5847 78.2017 31.4628C77.5602 31.6342 76.2114 30.9883 75.8405 31.1805C75.7824 31.2114 75.9914 31.5674 75.9587 31.5847C75.6334 31.736 74.5268 31.3729 74.4753 31.4944C74.4316 31.5955 74.9037 31.894 74.7285 32.0409C74.6919 32.0719 74.2368 31.5907 73.7886 31.7089C73.6223 31.7525 73.7224 32.0892 73.6806 32.1087C73.3314 32.2706 73.5375 31.7037 72.8994 31.7948C72.4319 31.8622 72.0836 32.4165 71.4375 32.2329C73.5589 32.9395 71.7756 32.6444 70.8886 32.8585C70.7464 32.8926 70.8683 33.5038 70.0189 33.2063C71.8265 32.1011 69.5036 32.6221 69.0284 32.61C69.0023 32.6063 68.9934 32.2032 68.7604 32.1968C68.7406 32.1971 68.769 32.4695 68.5524 32.4903C66.4982 32.6873 67.8117 32.3796 67.4214 32.1109C67.2553 31.9965 66.2563 32.3817 65.9873 32.391C65.9254 32.3919 65.9539 32.1089 65.7145 32.12C65.2911 32.1403 64.9117 32.4416 64.6322 32.4655C64.5995 32.4669 64.5982 32.0203 64.0684 32.1651C63.9194 32.2056 63.7522 32.3642 63.9637 32.4926C64.6654 32.9149 65.9964 32.184 66.7894 32.6055C67.5126 32.9894 65.2322 33.0256 65.1136 33.0278C65.0701 33.0292 65.5154 32.8075 65.063 32.7636C64.6766 32.7271 63.9704 33.4984 63.3945 33.3305C63.3506 33.318 62.8905 32.664 62.9118 32.6259C62.931 32.598 63.6376 32.456 63.535 32.2668C63.5227 32.2452 63.0737 32.2496 63.0151 32.1087C62.9433 31.9371 62.7497 30.2538 62.6538 30.2116C62.4077 30.1074 62.5679 30.4913 62.4087 30.4646C62.0674 30.4083 60.8835 29.9105 60.845 30.4939C61.0405 30.5286 61.2361 30.5632 61.4317 30.5978C60.3435 30.6578 60.8074 30.9062 60.6532 31.0156C60.4872 31.134 60.5339 30.6212 60.1671 30.573C60.0872 30.5624 58.5524 30.6694 58.5803 30.8846C59.4291 30.5421 59.1144 31.1759 59.1536 31.1873C59.3023 31.2285 59.4922 30.873 59.6917 30.8801C61.095 30.9358 59.6798 31.4969 60.0111 31.6412C60.1251 31.6898 60.3523 31.3863 60.4007 31.4018C60.5579 31.4521 60.5605 31.8495 60.6654 31.8173C60.9101 31.7428 60.6244 31.1804 60.6437 31.1511C60.8624 30.7992 61.7194 31.2371 61.1859 31.849C61.5062 32.0695 61.5437 31.3258 61.7977 31.6231C62.3026 32.2118 61.5462 32.0606 61.3412 32.1584C60.6061 32.511 60.388 32.2255 59.3474 32.3232C58.9726 32.3577 58.5287 32.7189 58.3548 32.7388C58.2453 32.7512 57.2111 31.4944 57.1806 33.4615C56.7786 33.2711 56.1478 31.9749 55.7337 32.0342C55.3618 32.0882 55.4801 32.7841 55.4454 32.811C55.3922 32.8533 54.9425 32.7985 54.7904 32.8969C54.6122 33.013 54.7012 33.2787 54.4184 33.3869C53.7147 33.6556 53.7331 32.9453 53.6608 32.8991C52.8211 32.3655 53.1888 33.3759 53.0025 33.4569C52.8292 33.5314 50.3987 33.1425 49.8871 33.3982C50.0953 33.2559 50.3035 33.1137 50.5116 32.9714C50.1391 32.5283 49.7442 33.251 49.7372 32.4565C49.6616 33.7392 48.8926 32.8818 48.6616 32.9149C48.5706 32.9286 48.5777 33.1472 48.4638 33.1566C48.0187 33.1949 47.0151 33.0209 46.7737 33.1317C45.7296 33.6089 48.3994 34.4027 48.6096 34.4506C48.1889 34.4365 45.8086 34.7238 46.9027 35.3404C47.0718 35.4356 47.3715 34.8615 47.4665 34.8391C48.1094 34.6913 47.6038 35.2057 47.6542 35.2546C47.7399 35.3336 48.163 34.8363 48.2747 34.8955C48.312 34.9145 48.0721 35.3803 48.6852 35.3901C48.3836 35.8417 46.6602 35.4738 46.4341 35.5798C46.3536 35.6177 46.8584 36.5826 45.3835 35.6453C45.4006 35.7349 45.4177 35.8245 45.4348 35.9141C44.6135 35.9509 43.7923 35.9878 42.971 36.0247C43.0602 35.8183 43.5214 35.4038 42.9406 35.4917C42.6062 35.5426 42.8536 36.0023 42.8231 36.0157C42.5231 36.1422 37.2124 35.9892 36.1832 36.0405C35.8331 36.0572 34.8572 36.4266 34.7828 36.4335C34.3379 36.4705 32.7622 36.23 32.4479 36.2822C32.2517 36.3156 32.4383 36.6999 32.2629 36.6819C32.0999 36.6646 32.2688 36.2932 32.2204 36.2777C31.8194 36.1431 28.7736 36.6302 28.0503 36.2799C28.4924 36.3851 30.6983 35.643 30.6539 35.3811C30.6443 35.3452 30.1082 35.0626 29.9976 35.2004C29.8149 34.8788 29.1876 35.8579 28.8464 35.6656C28.8078 35.6438 28.9598 35.0946 28.3508 34.9949C28.141 34.9608 27.5917 35.3889 27.0389 34.9091C26.2385 35.1396 22.0306 34.4274 21.7419 35.0175C21.7334 35.0486 22.3259 35.2518 21.9256 35.494C21.3934 35.8159 21.8713 34.7316 21.251 34.6381C21.1576 34.6238 19.4318 34.7336 19.3753 34.8007C18.8527 35.4092 20.3606 35.6559 20.3395 35.7266C20.2869 35.9047 19.034 36.0125 18.983 35.9705C18.9346 35.9268 19.9564 35.1205 18.7285 35.4262C18.8691 35.5226 19.0098 35.619 19.1505 35.7153C18.573 35.903 18.5179 35.3451 18.3781 35.3111C17.9431 35.2032 17.4726 36.0505 16.7758 35.0039C16.5915 34.7262 16.8974 34.4177 16.8744 34.3761C16.653 34.0023 16.3706 35.0023 16.0378 34.2564C16.0127 34.2008 16.7873 33.7539 15.4335 33.7528C15.5267 33.8243 15.6198 33.8958 15.713 33.9673C15.5221 34.127 14.1514 34.2219 13.9669 34.1841C13.4282 34.0738 13.898 33.5604 13.3566 33.6218C13.7039 34.3254 12.0573 34.4172 12.152 33.8115C11.922 34.5722 10.5233 33.9854 9.86577 33.9673C9.45089 33.9565 8.60464 34.2884 8.47282 34.2496C8.31224 34.2021 8.36104 33.6831 8.07107 33.5676C7.98839 33.5346 7.12521 33.9151 6.36754 33.3779C6.2207 33.2744 5.91231 32.3942 6.18523 32.1742C6.65238 31.7977 7.53611 32.5068 7.52484 31.9867C7.51158 31.4303 6.32129 31.7612 6.0009 31.6886C4.52178 31.3528 5.3759 30.7613 5.33785 30.582C5.23921 30.1469 4.43102 30.1604 4.3973 30.1213C4.25753 29.9475 4.83023 29.6032 4.83888 29.3376C4.84931 28.9919 4.0703 28.3679 4.2474 28.2514C4.50091 28.0858 5.21684 28.6059 5.26223 28.5811C5.8531 28.2456 5.04319 27.4469 4.81997 27.0544C4.75231 26.9337 5.02192 26.7353 4.96582 26.6998C4.10941 26.1625 4.78529 27.8225 4.21567 27.7116C3.70745 27.6128 4.36134 27.0879 4.34193 27.0589C4.31684 27.0271 3.70919 26.9985 3.61406 26.8128C3.56718 26.7198 5.14656 25.6987 5.0806 25.2409C4.57667 25.3418 4.07275 25.4427 3.56882 25.5435C3.52932 24.9466 4.25413 25.386 4.3291 25.3245C4.48002 25.201 4.05918 24.8989 4.07725 24.7102C4.08694 24.5902 4.58086 24.1618 4.13464 23.9853C3.98129 23.9243 3.65945 24.3428 3.10091 23.9153C5.04471 23.3692 3.69769 23.0336 3.64039 22.8222C3.58427 22.6108 4.51226 22.1131 3.38584 22.2011C3.337 21.0395 3.41012 21.8339 3.7302 21.6298C4.12229 21.3788 3.21608 20.9963 4.64915 21.2865C4.56762 20.7426 3.41576 20.7811 3.35478 20.7377C3.30212 20.6984 3.55816 20.4309 3.46687 20.3402C2.38704 19.2893 3.12872 19.7692 2.81597 19.0981C2.78816 19.0381 1.76755 18.7893 2.54454 18.6916C3.9601 18.5139 4.55171 19.2846 4.78959 17.6369C3.74255 16.9212 2.47391 17.9848 2.15562 18.0028C1.66844 18.0288 2.17312 17.6927 2.11308 17.5985C2.09223 17.5681 1.67241 17.5959 1.66677 17.5692C1.36742 16.3125 3.53571 17.5483 4.21837 17.3298C4.03539 17.1416 3.85241 16.9534 3.66943 16.7652C3.91768 16.7577 4.16593 16.7501 4.41418 16.7426C3.23152 16.3643 4.37248 16.5994 4.66738 15.5818C4.73358 15.3532 3.95662 15.7453 4.84293 15.1098C4.18923 14.9631 4.39774 14.7552 3.80582 15.042C3.8211 14.6342 5.15287 14.1741 5.67816 13.9648C3.82246 13.5064 4.8807 15.0025 3.27646 14.211C2.97897 14.716 3.7447 14.6177 3.68226 14.701C3.45823 15.0008 2.93306 14.5248 2.29944 15.575C2.19627 15.7475 2.63282 16.2782 1.98682 16.2525C1.91537 16.2489 1.50375 15.7954 1.50945 15.7625C1.56402 15.4073 1.97136 15.5404 1.98817 15.3921C2.00395 15.2517 1.54951 15.3362 1.54794 15.2972C1.53397 14.8522 1.92711 15.1272 1.87001 14.9878C1.7467 14.6849 0.112065 13.7272 2.24542 14.0077C0.473441 14.5108 2.01856 14.4991 2.70861 14.3058C2.88459 14.2574 2.92916 13.9916 3.1799 13.8993C3.50245 13.7798 3.87997 13.9074 4.04687 13.8587C4.22637 13.8049 3.20645 13.1766 4.68156 13.3641C3.93083 12.7391 2.60476 13.4054 1.86731 12.9666C0.379481 12.0798 2.90469 11.8895 3.16775 11.8035C3.23784 11.7802 3.00287 11.4213 3.04959 11.3993C3.12599 11.3655 4.55915 11.5315 4.70046 11.2344C4.84139 10.9376 4.17553 11.2481 4.13127 10.9386C4.10126 10.7302 5.83016 10.3606 4.89425 10.2181C4.24918 10.1205 3.06014 10.958 2.85986 10.0578C3.80852 9.98326 4.75718 9.90874 5.70584 9.83421C5.18661 9.49169 4.66738 9.14917 4.14815 8.80665C5.21292 8.69802 6.13341 9.08472 7.1447 8.59436C4.71462 7.49679 7.93372 7.71844 7.96912 7.58486C7.98097 7.50497 7.02447 6.6141 6.87057 6.45115C7.71813 6.10843 10.2936 5.94096 8.78679 4.84092C9.06028 5.0893 9.72258 4.47617 9.71385 4.42989C9.62974 3.94391 8.18524 4.25905 8.42083 3.82013C8.69385 3.31077 9.07642 4.00178 9.49643 3.9466C11.6517 3.65891 11.0604 1.1219 13.2215 1.52335C13.1785 1.43301 13.1356 1.34268 13.0926 1.25234C15.4416 1.39613 17.7906 1.53991 20.1397 1.6837C21.0587 0.908942 23.5047 0.437169 24.7061 0.522885C24.948 0.539579 26.1357 0.946187 26.2253 1.01747C26.3912 1.15409 25.4787 1.20622 25.891 1.46237C25.9781 1.51495 27.9889 1.6858 27.8451 1.25234C27.6198 1.20209 26.9146 1.41997 26.7992 1.31784C25.9885 0.588835 32.1874 1.17123 32.4945 0.877452C32.3572 0.73668 32.2199 0.595907 32.0827 0.455134C32.4738 0.524391 32.865 0.593649 33.2562 0.662906ZM15.2816 35.4759C15.0468 35.9109 14.4584 35.5842 14.1108 35.7063C13.6304 35.8773 12.8139 37.5521 13.1655 35.8734C13.8708 35.7409 14.5762 35.6084 15.2816 35.4759ZM25.5906 36.1241C25.1176 35.8905 25.4844 34.953 25.8721 35.3427C25.9151 35.387 26.2305 36.4385 25.5906 36.1241ZM20.6319 35.6792C20.6518 35.6668 21.0605 35.6916 21.0748 35.7063C21.4414 36.0827 20.209 36.0058 20.6319 35.6792ZM44.5861 35.1982C44.0649 35.2386 44.4423 36.0909 44.7663 35.7402C44.7867 35.7179 44.6203 35.1962 44.5861 35.1982ZM44.2154 35.1756C43.8106 34.4124 42.9954 35.9591 43.6435 35.8034C43.7064 35.7877 44.2341 35.2127 44.2154 35.1756ZM23.9046 35.7515C23.9578 35.4589 24.4457 35.6002 24.6541 35.6702C24.6484 35.9372 24.1089 35.7188 23.9046 35.7515ZM36.275 35.6702C36.2957 35.4402 34.5999 35.4529 34.4843 35.756C34.752 35.6274 36.2555 35.8768 36.275 35.6702ZM40.624 35.3472C40.581 35.3075 39.9951 35.3679 40.0122 35.5708C40.2982 35.837 40.8175 35.5271 40.624 35.3472ZM49.2679 35.3608C49.2997 35.3098 48.861 34.0186 49.9006 34.8684C50.0532 34.9929 49.5081 35.3302 49.5623 35.3766C49.6759 35.4669 49.7657 35.509 49.8378 35.5166C49.3536 35.6236 48.8507 35.674 48.802 35.5956C48.5736 35.2257 49.2538 35.382 49.2679 35.3608ZM53.806 34.3987C53.9057 34.1881 54.5428 34.3007 54.6878 34.3874C54.7127 34.4037 54.6042 34.9572 54.891 34.9159C55.1213 34.8817 54.7773 34.3147 55.2259 34.4055C55.6793 34.4965 55.0736 34.9006 55.1132 34.9294C55.1662 34.9672 55.8676 34.7126 55.8457 35.0423C55.8295 35.2865 55.0782 35.1214 54.8924 35.1733C54.6545 35.24 54.9429 35.6469 54.5453 35.5595C54.2955 35.5049 54.434 34.7894 54.3812 34.7533C54.337 34.7241 53.4637 35.1359 53.8073 34.4009C53.8069 34.4002 53.8064 34.3994 53.806 34.3987ZM49.9688 35.485C49.9323 35.5091 49.8896 35.522 49.8378 35.5166C49.8817 35.5069 49.9255 35.4956 49.9688 35.485ZM16.6482 35.162C16.8941 35.3827 16.1643 35.6656 15.8879 35.3766C15.8831 35.1434 16.609 35.1277 16.6482 35.162ZM50.4178 34.9023C51.137 35.0816 50.608 35.3281 49.9688 35.485C50.1718 35.3503 50.1763 34.8424 50.4178 34.9023ZM29.9976 35.2004C30.0279 35.2538 30.0472 35.337 30.0496 35.4737C29.9699 35.3242 29.9627 35.2439 29.9976 35.2004ZM31.6755 35.4443C32.2507 35.0279 31.082 35.0447 31.0894 35.3427C31.0929 35.4552 31.6525 35.4609 31.6755 35.4443ZM45.2545 35.2388C45.2019 35.1981 46.0193 33.9407 44.8325 34.8842C45.4659 35.0324 44.7976 35.1693 44.8075 35.2795C44.8334 35.5959 45.8974 35.2917 46.133 35.4285C46.3174 34.8623 45.4282 35.3731 45.2559 35.2388C45.2554 35.2388 45.255 35.2388 45.2545 35.2388ZM61.9847 34.7036C61.8405 35.0354 61.3832 34.9286 61.0745 34.9091C61.2187 34.5773 61.6761 34.684 61.9847 34.7036ZM142.748 34.751C140.633 35.0578 140.359 33.7066 142.294 34.2406C142.332 34.2518 142.876 34.614 142.748 34.751ZM124.598 34.4009C124.399 33.812 125.059 33.7173 125.492 33.9606C125.59 34.0153 125.952 34.6118 125.538 34.7284C125.551 34.0146 124.911 33.7419 124.598 34.4009ZM50.8243 34.5252C51.0337 34.1324 51.6783 34.412 52.018 34.471C51.8107 34.7943 51.1246 34.6481 50.8243 34.5252ZM135.799 34.0464C135.576 34.0018 135.425 34.5142 135.464 34.5568C135.636 34.7523 136.053 34.3381 135.799 34.0464ZM48.7433 34.4642C48.7138 34.2295 49.5677 34.0036 49.6271 34.5839C49.4446 34.5419 48.7644 34.6115 48.7433 34.4642ZM61.4027 34.5274C61.2701 34.4081 61.9567 34.1944 62.1643 34.3129C62.1476 34.5627 61.4896 34.605 61.4027 34.5274ZM132.21 34.2203C132.01 34.1758 131.512 34.1622 131.456 34.3693C131.388 34.6282 132.119 34.54 132.21 34.2203ZM169.35 33.7731C169.375 33.8662 168.603 34.5368 168.26 34.3671C167.608 34.0424 169.323 33.7074 169.35 33.7731ZM137.909 33.7822C138.538 34.2694 137.839 33.7975 137.867 34.3106C138.29 34.3291 139.344 34.3544 138.62 33.8499C138.478 33.7523 138.106 33.8154 137.909 33.7822ZM137.328 33.6105C137.26 33.7767 136.807 34.3007 137.199 34.2632C137.38 34.245 137.673 33.6628 137.328 33.6105ZM164.565 34.0012C164.001 33.547 166.587 33.7907 166.661 33.8702C166.701 33.9123 166.726 33.9519 166.741 33.9854C166.836 33.8415 167.325 33.8155 167.381 34.1796C167.235 34.1496 166.835 34.1816 166.788 34.1412C166.768 34.1241 166.753 34.1079 166.743 34.0916C166.571 34.4077 164.673 34.0873 164.565 34.0012ZM160.279 33.5337C160.925 32.8636 161.039 34.0029 160.984 34.0396C160.281 34.5059 160.739 33.6657 160.718 33.6263C160.669 33.5609 160.169 33.9507 160.281 33.5337C160.281 33.5337 160.28 33.5337 160.279 33.5337ZM163.686 33.8138C163.713 33.7989 164.255 33.8342 164.277 33.8522C164.722 34.2351 163.188 34.137 163.686 33.8138ZM57.2265 33.6015C57.6146 33.7147 57.2339 34.1339 56.976 33.9831C56.9549 33.9683 56.8842 33.5014 57.2265 33.6015ZM137.018 33.7234C136.928 33.6442 134.627 33.3455 134.765 33.9786C134.96 33.9039 137.576 34.2298 137.018 33.7234ZM119.819 33.5699C120.224 33.5748 119.782 34.1718 119.565 33.9493C119.485 33.8666 119.716 33.569 119.819 33.5699ZM47.5921 33.9222C47.1707 34.2502 47.2578 33.1497 47.6231 33.5269C47.6375 33.5417 47.6086 33.9094 47.5921 33.9222ZM123.061 33.9131C121.661 34.275 121.993 32.3821 123.812 33.0211C123.755 33.1054 123.698 33.1897 123.642 33.274C125.742 33.558 123.785 33.4074 123.271 33.5134C123.075 33.5537 123.239 33.8697 123.062 33.9154C123.062 33.9146 123.061 33.9139 123.061 33.9131ZM117.684 33.5337C116.336 32.1902 118.91 33.0651 119.648 32.8901C118.932 33.4449 118.001 33.3609 119.268 33.9289C117.415 34.0388 118.186 33.5037 118.112 33.4592C118.025 33.4093 117.742 33.5914 117.684 33.5337ZM121.24 33.5247C121.318 33.4855 121.905 33.759 122.116 33.7144C121.821 34.1734 120.723 33.7912 121.24 33.5247ZM155.787 33.8454C155.835 33.4858 155.956 33.2209 156.419 33.3553C156.276 33.536 155.98 33.6914 155.787 33.8454ZM14.8359 33.5834C14.5169 33.5576 13.8815 33.4221 14.0763 33.8002C14.0977 33.8324 14.835 33.7956 14.8359 33.5834ZM130.333 33.4321C130.266 33.3879 128.511 33.3582 129.117 33.7551C129.3 33.8747 130.896 33.8239 130.333 33.4321ZM139.422 33.4773C139.275 33.4735 138.678 33.5413 138.665 33.6263C138.625 33.9203 139.358 33.7587 139.422 33.4773ZM13.2263 33.2153C13.1842 33.178 12.2096 33.2441 12.3168 33.4185C12.5201 33.7485 13.3703 33.3438 13.2263 33.2153ZM58.6384 32.7591C58.7199 32.7458 58.8276 33.1364 58.8558 33.1408C58.922 33.1463 60.4134 32.9961 59.8436 33.4976C59.7486 33.5816 57.6029 33.389 57.3238 33.3395C57.2159 32.8033 58.1324 33.3134 58.3555 33.2582C58.3948 33.2477 58.4199 32.7991 58.6377 32.7614C58.6379 32.7606 58.6382 32.7598 58.6384 32.7591ZM158.2 33.466C158.266 33.1251 160.02 32.8993 159.999 33.3124C159.4 33.3636 158.8 33.4148 158.2 33.466ZM157.31 33.4095C156.936 33.1684 157.812 33.0886 158.07 33.195C158.073 33.4243 157.364 33.4448 157.31 33.4095ZM136.096 32.2035C135.92 32.2869 136.462 32.7844 136.341 32.8811C136.263 32.9413 135.869 32.7548 135.744 32.9104C135.708 32.9599 136.11 33.4275 136.226 33.4073C136.391 33.3803 136.231 33.0123 136.411 33.0098C137.009 33.0019 137.539 33.2643 138.099 33.2582C138.15 33.2569 137.757 32.9971 138.189 33.0008C138.255 33.0008 138.656 33.3879 139.173 33.3305C140.313 32.1318 141.15 33.3088 142.597 32.8765C142.543 32.7637 141.46 32.4609 141.397 32.4497C140.187 32.2526 138.02 32.2309 136.753 32.2284C136.428 32.2273 136.586 32.4811 136.446 32.4904C136.335 32.4972 136.467 32.0274 136.096 32.2035ZM15.0054 33.3237C14.8533 32.8545 14.3199 33.1514 13.9791 33.1272C14.099 33.5505 14.6724 33.2197 15.0054 33.3237ZM149.438 33.0459C149.268 33.064 148.738 32.9227 148.694 33.064C148.638 33.2485 149.402 33.3648 149.438 33.0459ZM67.0474 32.8923C67.0639 32.8795 67.4748 32.9047 67.4903 32.9194C67.8574 33.296 66.625 33.2189 67.0474 32.8923ZM76.8763 32.9827C77.1879 32.9248 77.5022 32.7781 77.6069 33.1588C77.4083 33.1005 76.8398 33.2478 76.8763 32.9827ZM90.4364 32.9714C90.3721 32.4728 91.3099 32.7957 91.487 32.8404C91.4214 33.062 90.4836 33.3306 90.4364 32.9714ZM155.719 32.2803C156.292 32.3098 156.171 31.5546 156.535 31.8964C156.595 31.9542 156.787 33.5267 156.157 32.9375C156.043 32.8316 156.487 32.4579 155.719 32.2803ZM124.109 33.0369C124.255 32.7071 124.71 32.805 125.018 32.8314C124.949 33.0764 124.328 33.0134 124.109 33.0369ZM11.466 32.8381C11.1971 32.3725 9.95467 32.7179 10.2621 33.0256C10.3058 33.0657 11.2917 32.8205 11.466 32.8381ZM52.282 33.0211C52.7932 32.6544 51.7344 32.5408 51.4002 32.8991C51.5515 32.8756 52.2476 33.0452 52.282 33.0211ZM87.1792 32.7004C87.2038 32.6854 87.7458 32.7207 87.77 32.7388C88.2143 33.1217 86.6806 33.0236 87.1792 32.7004ZM73.6441 32.3774C73.8394 32.0757 75.1234 32.3192 75.4111 32.6213C75.1342 33.0625 73.4018 32.7543 73.6441 32.3774ZM153.36 32.4949C153.769 32.4792 154.157 32.5722 154.533 32.7026C154.454 32.9567 153.403 32.6846 153.36 32.4949ZM89.169 32.6688C89.1981 32.6708 89.2264 32.6996 89.2541 32.7026C89.2252 32.6919 89.1968 32.6796 89.169 32.6688ZM144.205 32.3165C143.862 32.2161 143.933 32.6816 143.954 32.6959C144.212 32.8466 144.593 32.4297 144.205 32.3165ZM14.6138 32.6326C14.495 32.2125 13.9185 32.5384 13.5868 32.4384C13.683 32.7702 14.3466 32.6767 14.6138 32.6326ZM116.241 32.6733C115.81 32.2178 117.562 31.6887 117.931 31.9822C117.959 32.2636 116.304 32.7356 116.241 32.6733ZM50.6946 32.391C50.6602 32.0618 49.9246 32.459 50.0809 32.6146C50.1798 32.7135 50.7152 32.5955 50.6946 32.391ZM118.812 32.1742C118.977 32.0737 119.361 32.3985 119.226 32.5965C119.052 32.8502 118.77 32.2029 118.812 32.1742ZM133.583 31.9099C133.511 31.8597 132.543 32.1975 132.942 32.5333C133.22 32.7666 133.264 32.2908 133.329 32.2894C133.402 32.2909 134.956 32.8732 133.583 31.9099ZM106.427 32.3865C106.792 32.2599 107.234 32.4068 107.616 32.3978C107.461 32.6013 106.583 32.6568 106.427 32.3865ZM53.5318 32.3029C53.4431 32.1698 51.0269 32.0896 52.3995 32.4994C52.4796 32.5225 53.8012 32.7061 53.5318 32.3029ZM155.719 32.2803C155.647 32.2766 155.563 32.2609 155.467 32.2284C155.563 32.2412 155.646 32.2635 155.719 32.2803ZM149.207 32.2306C149.339 31.991 148.674 31.927 148.478 32.0545C148.418 32.3472 149.189 32.2641 149.207 32.2306ZM107.645 32.0635C107.866 31.9264 108.265 32.0727 108.538 32.0567C108.492 32.2795 107.741 32.2898 107.645 32.0635ZM92.1798 31.8128C92.6171 31.9452 93.1553 31.8843 93.1636 31.6118C93.1726 31.6544 93.1939 31.6996 93.229 31.7451C93.2646 31.7901 93.7331 31.6634 93.9367 31.7564C95.1553 32.3088 89.2308 32.0809 92.6646 31.3115C92.503 31.4786 92.3414 31.6457 92.1798 31.8128ZM71.9068 31.736C71.6586 31.4044 70.9634 31.82 71.1438 31.9506C71.2695 32.0401 72.1553 32.07 71.9068 31.736ZM81.4582 31.5396C81.384 31.4804 80.7053 31.7127 80.6878 31.8874C81.078 32.0714 81.7962 31.8146 81.4582 31.5396ZM69.9987 31.3476C69.8429 31.2976 69.6441 31.8324 69.6624 31.8557C69.8208 32.051 70.2603 31.6454 69.9987 31.3476ZM154.531 30.8395C154.3 30.6863 153.561 31.0734 153.4 31.4267C153.37 31.3584 153.289 31.2693 153.141 31.1624C153.142 31.1624 153.142 31.1624 153.143 31.1624C152.943 31.0198 146.97 30.8639 150.976 31.5441C151.102 31.5659 150.931 31.2488 151.441 31.3047C151.475 31.3088 151.492 31.5676 151.596 31.5802C151.835 31.6076 153.112 31.7705 153.369 31.5622C153.371 31.6101 153.387 31.6558 153.423 31.6977C153.737 32.071 154.711 30.9576 154.531 30.8395ZM82.8039 31.4921C82.6673 31.3962 82.235 31.4873 82.1902 31.7157C82.4046 31.8277 83.1209 31.7159 82.8039 31.4921ZM53.4569 31.3657C53.1786 31.1778 52.4733 31.529 52.6865 31.7157C52.8172 31.8306 53.7778 31.5814 53.4569 31.3657ZM78.4732 31.6141C80.0689 31.8841 78.854 31.5923 79.0984 31.2573C78.89 31.3762 78.6816 31.4952 78.4732 31.6141ZM161.917 31.7044C161.662 31.6274 161.961 30.9664 162.242 31.325C162.329 31.4389 162.059 31.7463 161.917 31.7044ZM173.407 31.4989C173.19 30.9128 174.25 31.2572 173.837 31.6593C173.818 31.6728 173.422 31.5212 173.407 31.4989ZM165.378 31.2595C165.205 31.6586 165.093 31.706 164.606 31.6073C165.326 31.4949 164.658 31.1419 165.378 31.2595ZM93.1588 31.5689C93.1616 31.5851 93.164 31.597 93.1636 31.6118C93.1604 31.5972 93.1591 31.5833 93.1588 31.5689ZM68.4984 31.4515C68.2987 31.1134 67.7388 31.1383 67.9056 31.4786C67.9217 31.5101 68.4165 31.7013 68.4984 31.4515ZM153.4 31.4267C153.426 31.4872 153.413 31.5264 153.369 31.5622C153.367 31.517 153.378 31.4743 153.4 31.4267ZM71.5044 31.176C71.4844 31.4282 72.3365 31.5263 72.3707 31.4967C72.8597 31.0592 71.8562 31.1608 71.5044 31.176ZM47.823 31.0111C47.779 31.0374 48.0625 31.6885 48.2362 31.4334C48.3707 31.2355 47.9876 30.9109 47.823 31.0111ZM167.03 31.0969C167.3 31.0974 167.68 31.0971 167.75 31.4063C167.569 31.3589 167.025 31.3239 167.03 31.0969ZM172.991 31.0744C172.673 31.4379 171.944 31.4369 171.479 31.377C171.47 30.8984 172.692 31.1869 172.991 31.0744ZM155.263 31.0179C155.241 30.9984 154.565 30.8556 154.657 31.176C154.792 31.6457 155.454 31.1921 155.263 31.0179ZM49.1369 31.3566C49.4395 31.136 48.7432 30.458 48.4239 30.9817C48.26 31.2499 49.0859 31.3936 49.1369 31.3566ZM66.7503 31.0088C66.351 31.1942 67.3406 31.5245 67.4788 31.1895C67.2949 31.1626 66.8921 30.9432 66.7503 31.0088ZM80.336 30.6701C79.0778 29.704 79.7631 31.4664 79.9863 31.3115C80.0178 31.2894 80.3668 30.6928 80.336 30.6701ZM8.34386 30.9072C8.16573 31.0415 8.82981 31.5277 8.91576 31.2076C8.96885 31.0072 8.45777 30.8217 8.34386 30.9072ZM99.2829 31.2979C99.2298 31.301 99.1771 31.3042 99.1249 31.307C99.164 31.2912 99.2155 31.286 99.2829 31.2979ZM63.1258 29.7148C64.0115 31.0788 63.9185 30.0275 63.9955 30.0332C64.1618 30.0479 64.5483 30.4167 64.8617 30.3562C64.5028 30.5097 64.1438 30.6633 63.7848 30.8169C64.0683 30.9154 66.5319 31.4175 66.5835 31.1963C66.6575 30.8813 65.8823 30.9801 65.8597 30.9524C65.8272 30.9129 65.7061 30.0372 65.6342 30.0039C65.5159 29.9506 63.4559 29.9325 63.1258 29.7148ZM77.7048 30.8214C77.9071 30.9255 77.9646 31.2725 78.0586 31.1895C78.0906 31.1611 78.0958 30.8302 78.2051 30.7446C78.0383 30.7702 77.8716 30.7958 77.7048 30.8214ZM61.5397 30.9411C61.289 30.5367 62.4132 30.6903 62.4492 30.7356C62.6415 31.0097 61.7446 31.2714 61.5397 30.9411ZM71.079 30.8824C71.038 30.8588 70.1747 30.7325 70.1817 30.9569C70.41 31.128 71.5643 31.1778 71.079 30.8824ZM78.3401 30.722C78.6435 30.7606 79.2168 31.0939 79.1511 30.5956C79.1506 30.5956 79.1502 30.5956 79.1497 30.5956C78.8799 30.6377 78.61 30.6799 78.3401 30.722ZM50.1727 30.3042C49.6106 29.5106 49.8769 30.5134 50.3746 30.7695C50.5253 30.4132 50.2648 30.4334 50.1727 30.3042ZM48.374 29.7125C48.2176 29.5697 46.6062 29.7262 46.852 30.1461C46.9394 30.2958 47.8661 29.9184 47.9087 29.9474C47.9734 29.9904 47.6779 30.455 48.1721 30.3629C48.1432 30.2055 48.4275 29.7602 48.374 29.7125ZM49.7075 29.7961C49.1489 29.1925 49.0234 30.3057 49.4435 30.3087C49.6076 30.3107 49.7872 29.8832 49.7075 29.7961ZM51.989 29.8909C51.788 29.7854 51.2527 29.6314 50.8837 30.0016C51.3775 30.0332 51.8713 30.0648 52.3651 30.0965C52.422 29.8867 52.1648 29.9837 51.9876 29.8909C51.9881 29.8909 51.9885 29.8909 51.989 29.8909ZM176.348 28.222C175.904 27.9063 176.927 27.7854 176.97 27.8629C177.098 28.1204 176.546 28.363 176.348 28.222ZM4.87737 20.7942C4.75405 20.6683 4.67344 20.2543 4.40202 20.4712C4.67503 20.7768 4.94804 21.0825 5.22104 21.3881C5.43321 20.6878 5.01214 20.933 4.87737 20.7942ZM3.83485 18.2354C3.87342 18.2184 3.66275 17.1416 4.16097 17.8605C4.4976 18.3459 2.66702 18.819 2.33658 18.3416C2.70169 18.1197 3.50288 18.3737 3.83485 18.2354ZM0.628312 13.5741C0.607205 13.4882 1.30269 13.3623 1.38319 13.4228C1.80588 13.7419 0.742508 14.0342 0.628312 13.5741ZM2.84703 13.7796C2.52086 13.5705 3.24342 13.4357 3.45876 13.556C3.47965 13.7565 2.89742 13.8101 2.84703 13.7796ZM171.854 12.6256C171.501 11.8937 171.185 13.4692 171.728 13.1518C171.754 13.1369 171.869 12.6614 171.854 12.6256ZM1.30824 12.4878C1.63441 12.6969 0.911846 12.8317 0.696508 12.7114C0.676481 12.5112 1.25858 12.4572 1.30824 12.4878ZM171.605 10.8821C171.137 10.3555 171.302 12.123 171.36 12.1942C171.601 12.4755 172.429 11.7818 172.598 11.6093C171.359 11.8746 171.826 11.1303 171.605 10.8821ZM169.443 11.9436C169.008 12.1321 170.12 12.4928 170.332 12C170.116 12.0236 169.567 11.8891 169.443 11.9436ZM166.804 11.3767C166.57 11.3134 165.875 11.1618 165.758 11.4399C166.013 11.3896 166.705 11.6629 166.804 11.3767ZM166.275 10.5434C165.909 10.1655 165.821 11.2665 166.243 10.9386C166.259 10.9259 166.288 10.5644 166.275 10.5434ZM164.22 10.1459C163.98 9.70801 163.706 10.7743 164.095 10.8031C164.21 10.8096 164.245 10.1961 164.22 10.1459ZM171.019 8.98056C170.675 8.79253 170.233 9.55614 170.966 9.64C170.708 9.75669 170.451 9.87337 170.193 9.99005C171.154 10.4181 171.083 9.35909 171.359 9.40287C171.744 9.46509 171.714 10.339 171.636 10.6134C171.952 10.078 173.294 10.0694 174.07 9.96747C173.388 9.74278 172.282 9.35326 171.609 9.21091C171.417 9.1697 171.231 9.40935 171.067 9.38255C170.805 9.33829 171.038 8.99322 171.02 8.98056C171.019 8.98056 171.019 8.98056 171.019 8.98056ZM161.519 10.1301C160.814 9.63406 161.26 10.705 161.658 10.514C161.675 10.4993 161.537 10.1422 161.519 10.1301ZM0.373761 9.23348C1.3153 9.68111 0.630917 10.2744 2.60058 9.3735C1.77308 10.0113 2.55482 9.83216 2.39329 10.0894C2.26372 10.2929 1.7782 10.1244 2.06042 10.5343C1.68946 10.0881 0.078926 10.2115 0.00712567 10.1391C0.00780088 10.1391 0.00847608 10.1391 0.00915128 10.1391C-0.0339727 10.0962 0.0733183 9.09112 0.373761 9.23348ZM166.801 8.5763C166.565 7.27689 166.473 9.33934 166.011 8.26239C165.396 9.82627 167.711 8.26262 167.991 9.58354C165.477 9.43006 169.652 10.8924 167.897 8.91506C169.343 9.63274 168.371 8.67017 168.594 8.41822C168.833 8.14982 169.65 8.44151 169.609 7.95751C169.608 7.95751 169.608 7.95751 169.607 7.95751C169.107 7.99138 168.607 8.02526 168.107 8.05913C168.597 9.1032 167.575 8.79014 167.228 7.93944C167.085 8.15173 166.943 8.36402 166.801 8.5763ZM169.631 9.55644C169.582 9.53254 168.494 9.67887 168.564 9.88843C168.709 10.0221 170.253 9.86182 169.631 9.55644ZM174.418 9.32835C174.028 9.3258 173.424 9.12212 173.211 9.51579C173.602 9.51844 174.206 9.72224 174.418 9.32835ZM154.307 9.25382C153.809 9.57687 155.342 9.67257 154.899 9.28995C154.877 9.27194 154.332 9.23874 154.307 9.25382ZM165.668 8.77278C165.162 8.37567 165.401 9.63966 165.776 9.31028C165.798 9.29086 165.692 8.79089 165.668 8.77278ZM1.13674 9.07991C1.1706 8.77023 2.53668 8.98775 2.77883 8.98506C2.64125 9.27292 1.0979 9.43493 1.13674 9.07991ZM175.106 8.1698C174.328 7.05626 173.274 8.34244 173.158 8.31433C173.043 8.28569 173.224 7.79893 173.197 7.78587C173.138 7.75857 171.913 7.79942 171.854 7.8333C171.811 7.85971 172.033 8.54375 171.78 8.75923C172.273 8.37055 174.512 8.61372 174.628 8.53791C174.718 8.47738 174.04 7.75906 175.104 8.1698C175.105 8.1698 175.105 8.1698 175.106 8.1698ZM172.869 8.16528C173.175 8.45201 172.317 8.4879 172.11 8.38208C171.648 8.1453 172.83 8.1313 172.869 8.16528ZM170.806 7.90105C170.708 7.83673 169.824 7.77832 169.748 8.09753C170.167 8.51162 171.028 8.0509 170.806 7.90105ZM160.967 7.94396C160.737 7.98485 160.106 7.73955 160.069 8.01848C160.299 7.9778 160.931 8.22291 160.967 7.94396ZM5.79767 6.64537C5.41616 6.41197 6.30008 6.31662 6.55795 6.42856C6.57194 6.61463 5.83015 6.66542 5.79767 6.64537ZM165.582 6.10563C165.447 6.02081 162.673 6.23247 162.283 6.36308C162.664 6.57403 165.413 6.59025 165.538 6.4873C165.574 6.45647 165.6 6.11898 165.582 6.10563ZM171.582 5.9769C171.836 5.56614 172.002 6.05879 172.034 6.06498C172.349 6.12783 173.001 6.03522 172.858 6.43084C172.303 6.27122 171.075 6.7926 171.582 5.9769ZM160.77 6.0853C159.828 6.23774 161.637 6.67049 161.4 6.24113C161.384 6.21517 160.867 6.0693 160.77 6.0853ZM165.892 5.98593C166.1 5.65403 168.875 5.94027 169.32 5.94077C168.921 6.55296 168.6 6.08796 168.064 6.11918C167.919 6.12833 167.958 6.38301 167.942 6.38341C167.692 6.39521 167.879 6.10106 167.725 6.0966C167.627 6.09458 165.6 6.45358 165.892 5.98593ZM171.727 5.69234C171.882 5.45688 173.615 5.35651 173.684 5.41908C174.206 5.88447 171.861 5.77432 171.727 5.69234ZM165.638 5.44166C165.936 4.73018 167.314 5.20666 166.371 5.56136C166.281 5.59363 165.9 5.28521 165.638 5.44166ZM160.87 5.40779C160.824 5.38686 159.842 5.24465 159.824 5.47102C159.966 5.55899 161.398 5.63792 160.87 5.40779ZM161.379 4.64219C161.356 4.64762 161.586 5.08363 161.125 5.02838C161.087 5.02318 161.016 4.53263 160.437 4.7122C160.319 4.74918 160.137 5.0737 160.15 5.09387C160.753 5.86371 162.568 4.38928 161.379 4.64219ZM171.759 5.29487C171.665 5.08781 171.89 4.47324 172.093 4.78447C172.18 4.91886 172.018 5.28768 171.759 5.29487ZM157.756 5.20905C158.327 4.83633 156.535 4.76587 156.444 4.86126C156.501 5.09342 157.699 5.24545 157.756 5.20905ZM6.69096 3.76818C6.69051 3.76818 6.69006 3.76818 6.68961 3.76818C7.16983 3.85264 6.87238 4.1627 6.89487 4.17244C7.91776 4.62785 7.64644 3.92559 7.8064 3.84271C8.14938 3.66347 8.09412 4.51748 8.67268 4.1634C7.71634 4.68627 8.58685 4.46708 8.61394 4.77091C8.72112 6.0108 7.34064 4.19033 6.86381 4.45022C6.79738 4.4862 7.28791 4.88192 7.11769 4.99449C6.56426 5.35925 4.84828 3.44522 6.69096 3.76818ZM172.25 4.73027C172.473 4.36607 174.163 4.71932 173.715 5.01935C173.643 5.06745 171.923 5.26111 172.25 4.73027ZM93.3121 4.19277C93.7182 3.87759 92.777 3.50707 92.6025 3.75238C92.5159 3.8746 93.1337 4.33109 93.3121 4.19277ZM86.7127 2.84451C86.2301 2.90849 85.7214 4.22284 86.3217 4.01887C86.3855 3.99658 86.768 3.02683 86.7127 2.84451ZM118.401 3.51977C117.897 3.05007 117.927 3.92278 118.297 3.91047C118.428 3.90626 118.417 3.53464 118.401 3.51977ZM99.1688 3.63269C99.1184 3.60223 98.5358 3.65795 98.5571 3.85853C98.7724 3.97887 99.495 3.84181 99.1688 3.63269ZM118.561 3.39556C118.263 3.55285 118.777 4.18407 119.142 3.5672C118.957 3.6178 118.592 3.37949 118.561 3.39556ZM164.597 3.513C164.346 3.87136 163.639 3.76308 163.232 3.82466C163.188 3.36038 164.306 3.59717 164.597 3.513ZM88.7612 3.37297C88.3044 3.70019 89.2831 3.96808 89.1934 3.53558C89.1809 3.51208 88.7792 3.35902 88.7612 3.37297ZM134.659 3.34814C134.327 3.62508 135.381 3.99752 135.091 3.51074C135.077 3.49089 134.677 3.33273 134.659 3.34814ZM139.263 3.50848C139.011 3.41506 137.937 3.4438 138.355 3.714C138.42 3.75552 139.244 3.76215 139.263 3.50848ZM7.83476 3.50847C7.699 3.03155 8.48696 3.14507 8.59976 3.22843C8.64408 3.2631 8.01181 4.12898 7.83476 3.50847ZM115.129 3.44525C114.868 3.50491 114.192 3.39152 114.073 3.64172C114.392 3.58993 115.214 3.94365 115.129 3.44525ZM90.8442 3.37072C90.4464 2.85247 89.7667 2.90362 89.9347 3.58075C90.6855 3.53537 89.8419 2.97213 90.8442 3.37072ZM120.241 2.83774C120.031 2.79821 119.871 3.44849 119.895 3.47912C120.121 3.77059 120.448 3.09075 120.241 2.83774ZM104.551 3.37298C104.539 3.09508 103.869 3.22121 103.958 3.40008C103.987 3.46013 104.561 3.59787 104.551 3.37298ZM155.819 3.35491C155.512 3.10126 156.45 2.85328 156.727 3.1494C156.862 3.57609 155.858 3.38405 155.819 3.35491ZM126.039 3.00034C126.07 2.58793 125.022 2.8211 125.435 3.16295C125.538 3.24848 126.028 3.13824 126.039 3.00034ZM136.067 2.50576C135.365 2.99756 138.315 3.34671 137.54 2.73386C137.485 2.69019 136.129 2.46423 136.067 2.50576ZM140.886 2.8129C140.765 2.75871 140.825 1.3729 141.327 1.90729C141.393 1.97659 141.085 2.34293 141.139 2.42672C141.17 2.47447 142.261 2.6691 142.312 2.63675C142.366 2.60001 142.302 2.15584 142.357 2.10602C142.419 2.05034 143.09 2.44052 143.442 2.44478C144.105 2.4521 144.176 2.08241 144.231 2.08118C144.389 2.07873 144.655 2.34122 144.976 2.3409C146.594 2.33795 149.068 2.02458 150.351 2.80838C149.209 2.49363 148.122 2.82758 146.986 2.93034C147.319 2.15865 145.315 3.52492 146.487 2.63449C145.948 2.82763 141.284 2.98209 140.888 2.8129C140.887 2.8129 140.887 2.8129 140.886 2.8129ZM84.8079 2.45607C85.1044 1.98291 83.5832 2.08934 83.4541 2.63674C83.6549 2.71271 84.7712 2.5097 84.8079 2.45607ZM91.826 1.30203C91.9673 1.22036 92.1013 0.295485 92.8422 0.764538C92.8428 0.764538 92.8435 0.764538 92.8442 0.764538C93.0608 0.90152 92.814 1.12688 92.8536 1.20718C92.8681 1.23997 93.5436 1.70005 92.9826 1.77404C92.127 1.88755 92.902 1.08599 92.4458 1.0762C92.39 1.07544 91.5266 1.57607 91.5768 1.68596C91.582 1.69876 91.8418 1.59286 91.8847 1.63853C92.0468 1.81023 91.9679 2.09905 91.9907 2.1128C92.0655 2.14802 93.4309 1.65598 93.6294 2.08569C93.694 2.22426 91.4528 2.54392 91.3655 2.47188C91.3103 2.42648 91.3335 1.62479 91.2764 1.54594C91.2469 1.50667 90.3455 1.80709 90.2284 1.73339C90.1945 1.71207 90.1685 1.68909 90.1494 1.67015C90.2858 1.91818 89.4695 1.90032 89.4945 1.62047C89.5087 1.51047 90.0706 1.57414 90.0907 1.59337C90.0995 1.60151 90.1072 1.61273 90.1143 1.62047C89.998 1.31819 91.9004 1.33183 91.4897 0.881974C92.0412 0.635538 91.4115 1.5419 91.826 1.30203ZM94.4768 0.807448C94.4199 0.891761 94.3629 0.976074 94.306 1.06039C95.2715 0.85402 96.3855 1.25989 97.4977 1.25687C97.7799 1.25671 97.4552 0.741068 97.8252 0.881975C98.1215 0.994898 98.4495 1.47318 98.2883 1.57982C98.249 1.60642 97.6457 1.29491 97.3437 1.32688C96.4522 1.42152 96.6774 1.86372 96.6253 1.87566C96.5678 1.88824 96.0067 1.57726 95.7003 1.59111C94.9299 1.6269 94.578 1.89839 93.5255 1.54368C94.1329 1.25225 93.8002 0.619129 94.4768 0.807448ZM130.463 1.7492C130.5 1.47087 131.132 1.71781 131.361 1.67693C131.325 1.95595 130.693 1.7083 130.463 1.7492ZM36.3155 1.38785C36.1214 1.84459 37.5759 1.95768 37.1926 1.57755C37.1078 1.49319 36.4983 1.3911 36.3155 1.38785ZM42.8494 1.66563C43.044 1.53935 42.2606 1.21051 42.262 1.564C42.2632 1.67736 42.8244 1.68205 42.8494 1.66563ZM106.957 1.25687C106.993 1.24257 107.529 1.34429 107.545 1.36753C107.9 1.8525 106.138 1.5722 106.957 1.25687ZM50.7925 1.10329C50.1144 1.40266 52.1556 1.53242 51.5319 1.15072C51.5008 1.13213 50.8252 1.08874 50.7925 1.10329ZM53.6297 1.01973C53.4672 1.03578 52.7453 0.887134 52.7358 1.02651C52.7214 1.25136 53.5477 1.40499 53.6297 1.01973ZM120.382 1.11233C120.303 0.597709 121.255 0.987433 121.586 0.922628C121.665 1.43761 120.713 1.04734 120.382 1.11233ZM114.373 0.732923C118.386 0.327241 117.502 1.42676 114.134 0.983604C114.129 0.653456 114.12 0.758472 114.373 0.732923ZM119.512 0.7939C119.366 1.12358 118.91 1.02582 118.603 0.999413C118.658 0.770197 119.29 0.853152 119.512 0.7939ZM34.5836 0.680973C34.8353 0.264503 35.9499 0.777939 35.7517 0.949721C35.7056 0.986818 34.4912 0.910002 34.5836 0.680973ZM107.293 0.816483C107.199 0.315995 108.404 0.520145 108.497 0.631295C108.869 1.07837 107.39 0.706018 107.293 0.816483ZM126.078 0.671947C126.29 0.279923 126.895 0.481556 127.284 0.48676C127.107 0.82197 126.408 0.679 126.078 0.671947ZM123.272 0.364807C123.296 0.34976 123.838 0.385152 123.862 0.403199C124.307 0.786097 122.773 0.688037 123.272 0.364807ZM6.02521 0.00345458C6.04328 -0.00917835 6.45384 0.0158185 6.46815 0.0305553C6.8346 0.406935 5.60237 0.330028 6.02521 0.00345458Z" fill="#FFFD8F" fill-opacity="0.99"/>
</svg>
