<svg width="84" height="84" viewBox="0 0 84 84" fill="none" xmlns="http://www.w3.org/2000/svg">
<path d="M70.0427 61.7172C73.9067 58.0287 76.6565 52.2971 73.2983 42.6402C71.7147 38.0863 68.572 33.2127 66.0099 29.6767C74.4055 41.2636 68.6681 71.8859 47.9045 67.7548C49.3013 68.1325 50.7253 68.4184 52.1407 68.6044C60.2021 69.6639 66.1788 65.4057 70.0427 61.7172Z" fill="black"/>
<path d="M35.8214 59.5106C36.2531 59.1183 36.0815 59.1289 36.5146 58.7323C32.6643 47.2088 37.9036 36.062 45.4042 36.8737C40.1949 36.9016 39.0237 39.1725 36.422 41.314C30.844 47.7146 33.0824 54.6157 34.6604 57.6194C34.9985 58.263 35.3866 58.8948 35.8214 59.5106Z" fill="black"/>
<path d="M61.4873 10.7687C55.5698 14.4851 58.9653 21.374 62.2242 24.7947L62.277 24.8588C62.6229 25.2786 63.3373 26.1457 64.2535 27.331C60.2273 22.889 58.0651 9.11522 67.48 9.35269C65.5355 9.12964 63.3572 9.59439 61.4873 10.7687Z" fill="black"/>
<path d="M14.992 62.8867C10.0854 63.0871 10.5681 67.838 12.1754 70.1051C14.5006 72.749 17.1026 72.3521 20.5336 71.0176C12.5994 73.6967 11.1376 63.4315 14.992 62.8867Z" fill="black"/>
<path d="M62.2242 24.7947C58.9653 21.374 55.5698 14.4851 61.4873 10.7687C63.3572 9.59439 65.5355 9.12964 67.48 9.35269M62.2242 24.7947L62.277 24.8588M62.2242 24.7947C62.2423 24.8137 62.2583 24.8361 62.277 24.8588M36.422 41.314C30.844 47.7146 33.0824 54.6157 34.6604 57.6194C34.9985 58.263 35.3866 58.8948 35.8214 59.5106M36.422 41.314C39.0935 38.2485 43.27 35.2485 47.5585 37.6562M36.422 41.314C39.0237 39.1725 40.1949 36.9016 45.4042 36.8737C37.9036 36.062 32.6643 47.2088 36.5146 58.7323M66.0099 29.6767C68.572 33.2127 71.7147 38.0863 73.2983 42.6402C76.6565 52.2971 73.9067 58.0287 70.0427 61.7172C66.1788 65.4057 60.2021 69.6639 52.1407 68.6044C50.7253 68.4184 49.3013 68.1325 47.9045 67.7548M66.0099 29.6767C74.4055 41.2636 68.6681 71.8859 47.9045 67.7548M66.0099 29.6767C65.3785 28.8053 64.2535 27.331 64.2535 27.331M47.9045 67.7548C37.986 65.4372 36.5146 58.7323 36.5146 58.7323M47.9045 67.7548C42.2433 66.2241 38.6617 63.5328 35.8214 59.5106M35.8214 59.5106C36.2531 59.1183 36.0815 59.1289 36.5146 58.7323M35.8214 59.5106C32.3252 62.6868 27.7429 67.9533 22.7182 70.1118C22.407 70.2454 22.1023 70.3756 21.8035 70.5012M36.5146 58.7323C46.8076 49.3071 57.2737 37.0657 63.808 29.2066C66.7239 25.5889 74.4767 20.1348 72.4698 12.9059C71.6982 10.8088 69.7482 9.61286 67.48 9.35269M67.48 9.35269C58.0651 9.11522 60.2273 22.889 64.2535 27.331M64.2535 27.331C63.3373 26.1457 62.6229 25.2786 62.277 24.8588M15.5231 62.8826C15.3394 62.8783 15.1624 62.8797 14.992 62.8867M14.992 62.8867C10.0854 63.0871 10.5681 67.838 12.1754 70.1051C14.5006 72.749 17.1026 72.3521 20.5336 71.0176M14.992 62.8867C11.1376 63.4315 12.5994 73.6967 20.5336 71.0176M21.8035 70.5012C21.3631 70.7093 20.9399 70.8804 20.5336 71.0176M21.8035 70.5012C21.3677 70.6844 20.9447 70.8577 20.5336 71.0176" stroke="black" stroke-width="0.30303" stroke-linecap="round"/>
</svg>
