<svg width="107" height="161" viewBox="0 0 107 161" fill="none" xmlns="http://www.w3.org/2000/svg">
<path d="M0 0V115.652C0.280728 115.047 0.574079 114.488 0.857961 113.898C1.2964 112.983 0.995165 112.698 0.969931 111.372C0.951006 110.442 1.4273 108.551 1.64337 108.022C1.77427 107.702 1.95406 107.595 2.10546 107.524C2.39407 107.392 2.40669 107.493 2.69688 106.807C2.9508 106.197 3.45233 105.552 3.62109 104.692C3.75199 106.802 4.13995 107.722 4.67617 108.693C5.143 109.527 5.01369 111.794 5.65085 112.185C5.85272 112.307 6.04827 112.139 6.25329 112.292C6.52771 112.505 6.7501 112.627 7.04817 112.622C7.47084 112.622 7.82255 112.2 8.22944 112.2C8.48967 112.2 8.60479 111.916 8.84766 111.753C9.10631 111.585 9.43121 112.033 9.68513 111.799C9.89015 111.606 9.90435 111.168 10.1504 111.168C10.3948 111.163 10.6377 111.799 10.8648 111.717C11.0131 111.662 11.0935 111.046 11.2607 111.087C11.3411 111.102 11.4752 111.575 11.524 111.672C11.7275 112.068 11.8458 112.292 12.0508 112.017C12.2448 111.753 12.3363 110.879 12.5744 110.955C12.6911 111.001 12.9608 111.9 13.1138 112.109C13.2762 112.322 13.3283 112.155 13.3882 112.607C13.4608 113.161 13.3661 114.564 13.3677 115.194C13.3724 116.145 13.3661 116.414 13.5901 117.197C13.8408 118.071 14.0569 118.336 14.3991 118.697C14.59 118.895 14.7714 118.808 14.948 118.966C15.1641 119.149 15.4053 119.754 15.47 120.486C15.5189 121.05 15.4117 121.736 15.4952 122.285C15.7097 123.678 16.4431 124.105 16.5393 125.782C16.5961 126.779 16.4652 126.657 16.7317 127.287C17.1244 128.233 17.7032 128.477 18.0234 129.798C18.1354 130.266 18.17 130.947 18.3136 131.323C18.4965 131.816 18.8182 131.725 19.0375 131.933C19.3166 132.197 19.509 132.563 19.6809 133.214C19.8213 133.753 19.7235 133.849 19.9601 134.266C20.1746 134.647 20.419 134.886 20.6225 135.339C20.7692 135.679 20.7486 135.822 20.9316 135.995C21.3842 136.406 22.0056 135.852 22.4488 135.634C22.6917 135.517 22.7563 135.756 22.9755 136.086C23.19 136.401 23.4439 136.493 23.6442 136.904C23.8966 137.428 23.9549 138.211 24.2956 138.079C24.5952 137.967 24.7766 137.499 25.0857 137.758C25.3144 137.952 25.5194 138.394 25.7529 138.541C25.95 138.673 26.0777 138.526 26.2765 138.831C26.5241 139.207 26.6518 139.492 26.9436 139.319C27.4136 139.034 28.1012 138.45 28.5002 137.565C28.5728 137.403 28.516 137.077 28.6311 136.899C28.7431 136.721 28.9402 136.823 29.0427 136.813C29.6073 136.793 30.194 136.986 30.7366 136.315C31.2081 135.725 31.4242 134.266 31.7996 133.351C32.208 132.355 32.4825 130.179 32.9666 129.575C33.1969 129.29 33.5943 129.605 33.8451 129.605C34.1337 129.605 34.4192 129.595 34.7078 129.615C34.9853 129.62 35.1336 129.442 35.3844 129.081C36.0294 128.161 36.5908 127.618 37.0545 125.757C37.3321 124.629 37.728 124.598 37.9283 123.038C38.0276 122.27 37.9346 121.335 38.0592 120.654C38.1427 120.206 38.4108 119.845 38.537 119.632C38.9597 118.9 39.2672 118.351 39.7104 118.102C40.2703 117.787 40.8412 117.482 41.409 117.065C41.6171 116.912 41.8711 116.673 42.0824 116.943C42.2732 117.182 42.3994 117.604 42.6092 117.822C42.893 118.112 42.8757 118.041 43.1659 117.812C43.4072 117.619 43.6974 117.583 43.915 117.965C44.4638 118.915 44.5506 121.157 45.0095 122.417C45.2098 122.961 45.3881 123.2 45.6388 123.246C45.8707 123.292 45.9006 123.155 46.0678 123.632C46.2965 124.283 46.492 125.381 46.6971 126.128C46.8422 126.657 46.992 127.018 47.1166 127.546C47.3594 128.609 47.5787 129.453 47.8925 130.373C48.0975 130.972 48.1811 132.03 48.3925 132.513C48.6779 133.168 49.0596 132.64 49.3359 132.97C49.5551 133.219 49.6598 134.825 49.6956 135.476C49.7838 137.006 49.7504 138.816 50.1434 139.802C50.396 140.432 50.6127 140.783 50.9343 140.671C51.1725 140.574 51.4631 139.954 51.7038 140.163C51.9443 140.361 52.0897 141.611 52.2183 142.221C52.3969 143.055 52.6256 143.807 52.7591 144.743C52.7638 144.575 52.7923 144.509 52.8448 144.529C53.0448 145.012 53.0686 145.561 53.1712 146.242C53.295 147.086 53.4998 147.925 53.6809 148.652C54.0359 150.09 54.3907 149.195 54.8625 149.643C54.9983 149.775 55.1482 150.095 55.2578 150.39C55.4794 150.98 55.4365 151.371 55.5414 152.083C55.789 153.765 56.1869 154.756 56.7634 155.046C56.9562 155.143 57.0564 155.011 57.2255 155.417C57.4732 156.022 57.5567 157.354 57.8306 158.02C58.0044 158.442 58.2284 158.803 58.4427 158.92C58.6381 159.026 58.8573 158.726 59.0478 158.874C59.4741 159.179 59.7506 160.597 60.277 160.206C60.3937 160.114 60.4152 159.84 60.5437 159.723C60.7844 159.514 61.1322 159.779 61.3823 159.763C62.1445 159.723 62.7711 159.484 63.2976 157.7C63.6071 156.663 63.7335 157.12 64.0718 157.715C64.5315 158.513 64.7553 158.904 65.2628 158.904C65.6796 158.894 66.1084 159.103 66.4251 158.05C66.4871 157.837 66.5157 157.506 66.5896 157.313C66.7969 156.759 67.2232 156.774 67.4853 156.769C67.8521 156.744 67.933 156.886 68.1666 156.032C68.2261 155.819 68.35 155.239 68.4095 155.056C68.8025 153.882 69.5387 155.173 69.9888 155.092C70.3414 155.041 70.5678 154.228 70.8965 153.872C71.1251 154.634 71.1822 154.782 71.2109 155.865C71.4611 156.225 71.9541 155.926 72.228 155.931C72.4091 155.931 72.571 155.946 72.745 155.829C72.8259 155.778 72.9331 155.565 73.0475 155.493C73.1642 155.422 73.3285 155.488 73.4429 155.488C73.8979 155.504 74.3838 156.017 74.7911 155.615C75.2985 155.127 75.8678 155.072 76.3301 154.136C76.7826 153.211 77.0947 152.947 77.6473 152.962C78.443 152.993 79.1481 152.291 79.92 151.803C80.2201 151.61 80.6035 151.508 80.8751 151.046C80.9894 150.848 81.0728 150.497 81.1966 150.39C81.323 150.278 81.4635 150.426 81.5993 150.309C81.6707 150.258 81.7184 150.065 81.7947 150.019C82.0161 149.887 82.2257 149.958 82.452 149.775C82.9808 149.353 83.5598 149.933 84.0719 149.465C84.222 149.328 84.3006 149.099 84.496 149.129C84.7627 149.175 84.8128 149.414 85.0152 149.968C85.294 150.741 85.5965 151.478 85.9513 151.834C86.1944 152.067 86.4183 151.986 86.6588 152.144C86.9519 152.337 87.2115 153.059 87.5045 153.308C87.7355 153.506 87.9881 153.338 88.224 153.359C88.9195 153.43 89.6246 154.167 90.3178 153.714C90.6632 153.481 90.8633 153.292 91.2183 153.597C91.5041 153.841 91.7875 153.796 92.0758 154.035C92.3474 154.258 92.8095 155.3 93.0763 155.133C93.2478 155.026 93.2288 154.594 93.4455 154.609C93.7647 154.64 94.0625 155.509 94.4175 155.539C94.7509 155.565 94.8843 155.58 95.1845 155.829C95.6324 156.215 96.2588 156.093 96.6804 155.468C96.7947 155.3 96.8925 154.863 97.0092 154.726C97.095 154.624 97.2068 154.751 97.2808 154.665C97.4404 154.487 97.5142 154.111 97.6929 153.913C98.2408 153.292 98.9434 153.389 99.508 153.165C99.7772 153.059 100.218 153.089 100.447 152.444C100.635 151.915 100.644 151.356 100.904 151.025C101.152 150.71 101.421 150.827 101.68 150.842C102.107 150.858 102.805 150.98 102.834 149.175C103.272 149.983 104.291 149.719 104.787 149.358C105.106 149.129 105.385 148.453 105.694 148.27C105.828 148.184 105.995 148.245 106.168 148.316V0H0Z" fill="#EBD1C8"/>
</svg>
