<svg width="107" height="263" viewBox="0 0 107 263" fill="none" xmlns="http://www.w3.org/2000/svg">
<path d="M106.168 0V189.315C105.888 188.325 105.594 187.41 105.31 186.445C104.872 184.947 105.173 184.481 105.198 182.309C105.217 180.786 104.741 177.691 104.525 176.826C104.394 176.302 104.214 176.127 104.063 176.01C103.774 175.794 103.762 175.96 103.471 174.837C103.218 173.839 102.716 172.782 102.547 171.376C102.416 174.829 102.028 176.335 101.492 177.924C101.025 179.289 101.155 183 100.517 183.641C100.316 183.84 100.12 183.566 99.915 183.815C99.6406 184.165 99.4182 184.364 99.1202 184.356C98.6975 184.356 98.3458 183.665 97.9389 183.665C97.6787 183.665 97.5636 183.2 97.3207 182.933C97.062 182.659 96.7371 183.391 96.4832 183.008C96.2782 182.692 96.264 181.976 96.018 181.976C95.7735 181.968 95.5306 183.008 95.3035 182.875C95.1553 182.783 95.0749 181.777 94.9077 181.843C94.8272 181.868 94.6932 182.642 94.6443 182.8C94.4408 183.449 94.3226 183.815 94.1175 183.366C93.9235 182.933 93.8321 181.502 93.5939 181.627C93.4772 181.702 93.2075 183.175 93.0546 183.516C92.8921 183.865 92.8401 183.591 92.7801 184.331C92.7076 185.238 92.8022 187.535 92.8006 188.566C92.7959 190.122 92.8022 190.563 92.5783 191.845C92.3275 193.276 92.1114 193.709 91.7692 194.299C91.5784 194.624 91.397 194.483 91.2204 194.74C91.0043 195.04 90.763 196.03 90.6983 197.228C90.6494 198.152 90.7567 199.275 90.6731 200.174C90.4586 202.454 89.7252 203.153 89.629 205.899C89.5723 207.53 89.7032 207.33 89.4366 208.362C89.0439 209.909 88.4651 210.309 88.145 212.472C88.033 213.238 87.9983 214.353 87.8548 214.968C87.6718 215.776 87.3501 215.626 87.1309 215.967C86.8517 216.4 86.6593 216.999 86.4874 218.064C86.347 218.946 86.4448 219.104 86.2083 219.786C85.9938 220.41 85.7493 220.801 85.5459 221.542C85.3992 222.099 85.4197 222.332 85.2368 222.615C84.7841 223.289 84.1627 222.382 83.7196 222.024C83.4767 221.833 83.412 222.224 83.1928 222.765C82.9783 223.281 82.7244 223.431 82.5241 224.105C82.2718 224.962 82.2134 226.243 81.8728 226.027C81.5731 225.844 81.3917 225.078 81.0826 225.503C80.8539 225.819 80.6489 226.543 80.4155 226.784C80.2183 227 80.0906 226.759 79.8919 227.258C79.6443 227.874 79.5165 228.34 79.2248 228.057C78.7548 227.591 78.0671 226.634 77.6681 225.186C77.5956 224.92 77.6524 224.388 77.5372 224.096C77.4253 223.805 77.2281 223.972 77.1256 223.955C76.561 223.922 75.9743 224.238 75.4318 223.139C74.9602 222.174 74.7441 219.786 74.3688 218.288C73.9603 216.658 73.6859 213.096 73.2017 212.106C72.9715 211.64 72.574 212.156 72.3233 212.156C72.0347 212.156 71.7492 212.139 71.4606 212.173C71.183 212.181 71.0348 211.89 70.784 211.299C70.1389 209.793 69.5775 208.903 69.1138 205.857C68.8362 204.01 68.4404 203.96 68.2401 201.406C68.1407 200.149 68.2338 198.618 68.1092 197.503C68.0256 196.771 67.7575 196.18 67.6313 195.831C67.2087 194.632 66.9011 193.734 66.4579 193.326C65.8981 192.81 65.3271 192.311 64.7594 191.629C64.5512 191.379 64.2973 190.988 64.0859 191.429C63.8951 191.82 63.769 192.51 63.5592 192.868C63.2753 193.343 63.2927 193.226 63.0025 192.852C62.7612 192.536 62.471 192.477 62.2533 193.101C61.7045 194.657 61.6177 198.327 61.1588 200.39C60.9585 201.281 60.7803 201.672 60.5295 201.747C60.2977 201.821 60.2677 201.597 60.1006 202.379C59.8719 203.444 59.6763 205.241 59.4713 206.465C59.3262 207.33 59.1764 207.921 59.0518 208.786C58.8089 210.525 58.5897 211.906 58.2758 213.412C58.0708 214.394 57.9872 216.125 57.7759 216.915C57.4904 217.989 57.1087 217.123 56.8324 217.664C56.6132 218.072 56.5085 220.702 56.4727 221.767C56.3845 224.271 56.418 227.233 56.025 228.848C55.7723 229.879 55.5556 230.453 55.234 230.27C54.9959 230.112 54.7052 229.097 54.4645 229.438C54.224 229.763 54.0786 231.81 53.9501 232.808C53.7714 234.173 53.5427 235.404 53.4093 236.935C53.4046 236.661 53.376 236.553 53.3235 236.586C53.1235 237.376 53.0997 238.275 52.9972 239.39C52.8734 240.771 52.6685 242.144 52.4875 243.334C52.1325 245.689 51.7776 244.224 51.3059 244.957C51.1701 245.173 51.0201 245.697 50.9105 246.18C50.6889 247.145 50.7318 247.786 50.6269 248.951C50.3793 251.705 49.9814 253.327 49.405 253.802C49.2121 253.96 49.1119 253.743 48.9429 254.409C48.6951 255.399 48.6117 257.579 48.3377 258.669C48.1639 259.36 47.94 259.951 47.7257 260.142C47.5302 260.317 47.311 259.826 47.1205 260.067C46.6942 260.567 46.4178 262.888 45.8913 262.247C45.7746 262.098 45.7532 261.648 45.6246 261.457C45.3839 261.116 45.0362 261.548 44.7861 261.523C44.0238 261.457 43.3972 261.066 42.8708 258.145C42.5612 256.448 42.4349 257.197 42.0966 258.17C41.6369 259.477 41.4131 260.117 40.9055 260.117C40.4887 260.101 40.0599 260.442 39.7432 258.719C39.6812 258.37 39.6527 257.829 39.5787 257.513C39.3715 256.606 38.9452 256.631 38.6831 256.622C38.3162 256.581 38.2353 256.814 38.0017 255.416C37.9423 255.066 37.8183 254.118 37.7589 253.818C37.3658 251.896 36.6296 254.01 36.1795 253.877C35.8269 253.793 35.6006 252.462 35.2719 251.88C35.0432 253.128 34.9861 253.369 34.9574 255.141C34.7073 255.732 34.2143 255.241 33.9403 255.249C33.7593 255.249 33.5973 255.274 33.4233 255.083C33.3424 255 33.2352 254.65 33.1209 254.534C33.0042 254.417 32.8398 254.526 32.7255 254.526C32.2705 254.551 31.7846 255.391 31.3772 254.734C30.8698 253.935 30.3005 253.843 29.8382 252.312C29.3858 250.798 29.0736 250.365 28.521 250.39C27.7254 250.44 27.0202 249.292 26.2484 248.493C25.9483 248.177 25.5649 248.01 25.2933 247.253C25.1789 246.929 25.0955 246.355 24.9717 246.18C24.8454 245.997 24.7049 246.238 24.5691 246.047C24.4976 245.963 24.45 245.647 24.3737 245.572C24.1522 245.356 23.9426 245.473 23.7163 245.173C23.1875 244.482 22.6085 245.431 22.0964 244.665C21.9463 244.441 21.8678 244.066 21.6724 244.116C21.4057 244.191 21.3555 244.582 21.1532 245.489C20.8743 246.754 20.5718 247.96 20.217 248.543C19.974 248.926 19.75 248.793 19.5095 249.05C19.2165 249.367 18.9569 250.548 18.6638 250.956C18.4328 251.281 18.1803 251.006 17.9444 251.039C17.2488 251.156 16.5437 252.362 15.8506 251.622C15.5052 251.239 15.305 250.931 14.95 251.43C14.6643 251.83 14.3808 251.755 14.0925 252.146C13.821 252.512 13.3589 254.218 13.092 253.943C12.9206 253.768 12.9395 253.061 12.7228 253.086C12.4036 253.136 12.1058 254.559 11.7508 254.609C11.4174 254.65 11.284 254.675 10.9839 255.083C10.536 255.715 9.90954 255.516 9.48798 254.492C9.37364 254.218 9.27585 253.502 9.15915 253.277C9.07335 253.111 8.96154 253.319 8.88757 253.178C8.72796 252.886 8.65415 252.271 8.47546 251.946C7.92757 250.931 7.22496 251.089 6.66035 250.723C6.39114 250.548 5.95049 250.598 5.72181 249.541C5.53366 248.676 5.52404 247.761 5.26444 247.22C5.01668 246.704 4.74746 246.895 4.48786 246.92C4.06141 246.945 3.36353 247.145 3.33483 244.191C2.89655 245.514 1.87709 245.081 1.38156 244.491C1.06235 244.116 0.783677 243.01 0.47393 242.71C0.340663 242.569 0.173799 242.668 0 242.785V0H106.168Z" fill="#EBD1C8"/>
</svg>
