<svg width="106" height="12" viewBox="0 0 106 12" fill="none" xmlns="http://www.w3.org/2000/svg">
<path d="M0 0V8.65909C0.280283 8.6138 0.573166 8.57194 0.856598 8.52779C1.29434 8.45928 0.993593 8.43797 0.968399 8.33864C0.949504 8.26899 1.42503 8.12741 1.64075 8.08783C1.77145 8.06385 1.95095 8.05586 2.10211 8.05053C2.39027 8.04064 2.40287 8.04825 2.6926 7.99687C2.94612 7.9512 3.44686 7.90286 3.61535 7.83854C3.74604 7.99649 4.13339 8.06537 4.66876 8.13807C5.13485 8.20048 5.00573 8.37022 5.64188 8.39953C5.84343 8.40866 6.03868 8.3961 6.24338 8.40752C6.51736 8.42351 6.73939 8.43264 7.03699 8.43226C7.45899 8.43226 7.81014 8.40067 8.21639 8.40067C8.47621 8.40067 8.59115 8.37936 8.83364 8.36718C9.09188 8.35462 9.41625 8.38811 9.66976 8.3706C9.87446 8.35614 9.88864 8.32341 10.1343 8.32341C10.3783 8.32303 10.6208 8.3706 10.8476 8.36452C10.9956 8.36033 11.0759 8.31428 11.2428 8.31732C11.3231 8.31846 11.457 8.35386 11.5058 8.36109C11.7089 8.39077 11.827 8.40752 12.0317 8.38697C12.2254 8.36718 12.3167 8.30172 12.5545 8.30743C12.671 8.31085 12.9402 8.37822 13.093 8.39382C13.2552 8.40981 13.3071 8.39725 13.367 8.43112C13.4394 8.4726 13.3449 8.57764 13.3465 8.62484C13.3512 8.69601 13.3449 8.71618 13.5685 8.77479C13.8189 8.84025 14.0346 8.86004 14.3763 8.88706C14.5668 8.9019 14.7479 8.89543 14.9243 8.90723C15.14 8.92093 15.3809 8.96622 15.4455 9.02103C15.4943 9.06327 15.3872 9.11465 15.4707 9.15575C15.6848 9.26004 16.417 9.292 16.5131 9.4176C16.5698 9.49219 16.4391 9.48306 16.7052 9.53025C17.0973 9.60104 17.6752 9.61931 17.9948 9.71826C18.1066 9.75327 18.1412 9.80427 18.2845 9.83244C18.4672 9.86935 18.7884 9.8625 19.0073 9.87811C19.286 9.8979 19.4781 9.9253 19.6497 9.97401C19.7899 10.0144 19.6922 10.0216 19.9284 10.0528C20.1426 10.0813 20.3866 10.0992 20.5898 10.1331C20.7362 10.1586 20.7157 10.1693 20.8984 10.1822C21.3503 10.213 21.9707 10.1715 22.4132 10.1552C22.6557 10.1464 22.7202 10.1643 22.9391 10.189C23.1533 10.2126 23.4068 10.2195 23.6067 10.2503C23.8587 10.2895 23.9169 10.3481 24.2571 10.3382C24.5562 10.3299 24.7373 10.2948 25.046 10.3143C25.2743 10.3287 25.479 10.3618 25.712 10.3729C25.9088 10.3828 26.0364 10.3717 26.2348 10.3946C26.482 10.4227 26.6096 10.444 26.9009 10.4311C27.3701 10.4098 28.0566 10.366 28.455 10.2998C28.5274 10.2876 28.4708 10.2633 28.5857 10.2499C28.6975 10.2366 28.8943 10.2442 28.9967 10.2435C29.5604 10.2419 30.1462 10.2564 30.6878 10.2062C31.1586 10.162 31.3744 10.0528 31.7491 9.98429C32.157 9.90969 32.4309 9.7468 32.9143 9.70151C33.1442 9.6802 33.541 9.7038 33.7914 9.7038C34.0796 9.7038 34.3646 9.70303 34.6527 9.70456C34.9299 9.70494 35.0779 9.69162 35.3282 9.6646C35.9723 9.59571 36.5328 9.55499 36.9958 9.41569C37.2729 9.3312 37.6681 9.32892 37.8681 9.21208C37.9673 9.15461 37.8744 9.08458 37.9988 9.03358C38.0823 9.00009 38.3499 8.97307 38.4759 8.95709C38.8979 8.90228 39.205 8.86118 39.6474 8.84253C40.2064 8.81893 40.7764 8.7961 41.3433 8.76489C41.5512 8.75347 41.8047 8.73559 42.0157 8.75576C42.2062 8.77364 42.3322 8.80523 42.5416 8.8216C42.825 8.84329 42.8077 8.83797 43.0974 8.82084C43.3383 8.80638 43.6281 8.80371 43.8454 8.83226C44.3933 8.90343 44.48 9.07126 44.9382 9.16565C45.1381 9.20637 45.3161 9.22426 45.5664 9.22768C45.7979 9.23111 45.8278 9.22083 45.9947 9.25661C46.2231 9.30532 46.4183 9.38753 46.623 9.44348C46.7679 9.48306 46.9175 9.51008 47.0419 9.54966C47.2844 9.6292 47.5032 9.69238 47.8166 9.76127C48.0213 9.80617 48.1047 9.88533 48.3157 9.92149C48.6007 9.97059 48.9818 9.931 49.2577 9.95574C49.4766 9.97439 49.5811 10.0947 49.6168 10.1434C49.7049 10.2579 49.6715 10.3934 50.0639 10.4673C50.3161 10.5144 50.5325 10.5407 50.8535 10.5323C51.0913 10.5251 51.3815 10.4787 51.6218 10.4943C51.8619 10.5091 52.0071 10.6027 52.1355 10.6484C52.3139 10.7108 52.5422 10.7672 52.6754 10.8372C52.6801 10.8246 52.7086 10.8197 52.761 10.8212C52.9607 10.8574 52.9845 10.8985 53.0868 10.9495C53.2104 11.0126 53.415 11.0754 53.5958 11.1299C53.9502 11.2376 54.3045 11.1706 54.7755 11.2041C54.911 11.214 55.0608 11.2379 55.1702 11.26C55.3915 11.3042 55.3486 11.3335 55.4533 11.3867C55.7006 11.5127 56.0978 11.5869 56.6734 11.6086C56.8659 11.6159 56.9659 11.606 57.1347 11.6364C57.3821 11.6817 57.4654 11.7814 57.7389 11.8313C57.9124 11.8629 58.136 11.8899 58.35 11.8986C58.5451 11.9066 58.764 11.8842 58.9542 11.8952C59.3798 11.918 59.6558 12.0242 60.1815 11.9949C60.298 11.9881 60.3194 11.9675 60.4477 11.9588C60.688 11.9432 61.0352 11.963 61.285 11.9618C62.046 11.9588 62.6716 11.9409 63.1972 11.8073C63.5063 11.7297 63.6324 11.7639 63.9702 11.8084C64.4292 11.8682 64.6526 11.8975 65.1593 11.8975C65.5755 11.8967 66.0036 11.9123 66.3198 11.8336C66.3817 11.8176 66.4102 11.7928 66.4841 11.7784C66.691 11.7369 67.1166 11.738 67.3783 11.7376C67.7445 11.7357 67.8253 11.7464 68.0585 11.6825C68.1179 11.6665 68.2416 11.6231 68.301 11.6094C68.6934 11.5215 69.4284 11.6181 69.8778 11.6121C70.2299 11.6082 70.4559 11.5474 70.784 11.5207C71.0124 11.5778 71.0693 11.5888 71.098 11.6699C71.3477 11.6969 71.84 11.6745 72.1135 11.6749C72.2943 11.6749 72.456 11.676 72.6297 11.6672C72.7104 11.6634 72.8175 11.6474 72.9317 11.6421C73.0482 11.6368 73.2123 11.6417 73.3264 11.6417C73.7807 11.6429 74.2658 11.6813 74.6726 11.6513C75.1791 11.6147 75.7475 11.6105 76.2091 11.5405C76.6608 11.4712 76.9725 11.4514 77.5242 11.4526C78.3186 11.4549 79.0226 11.4023 79.7932 11.3658C80.0929 11.3514 80.4757 11.3437 80.7468 11.3091C80.861 11.2943 80.9443 11.268 81.0679 11.26C81.194 11.2516 81.3343 11.2627 81.4699 11.2539C81.5412 11.2501 81.5888 11.2357 81.665 11.2322C81.8861 11.2223 82.0953 11.2277 82.3213 11.214C82.8493 11.1824 83.4273 11.2258 83.9386 11.1907C84.0885 11.1805 84.1669 11.1633 84.362 11.1656C84.6283 11.1691 84.6783 11.1869 84.8804 11.2284C85.1588 11.2863 85.4608 11.3415 85.8151 11.3681C86.0577 11.3856 86.2813 11.3795 86.5214 11.3913C86.814 11.4058 87.0732 11.4598 87.3658 11.4785C87.5964 11.4933 87.8485 11.4808 88.0841 11.4823C88.7785 11.4876 89.4825 11.5428 90.1746 11.5089C90.5194 11.4914 90.7192 11.4773 91.0737 11.5002C91.359 11.5184 91.642 11.515 91.9298 11.5329C92.2009 11.5496 92.6623 11.6277 92.9287 11.6151C93.0999 11.6071 93.081 11.5748 93.2974 11.5759C93.6161 11.5782 93.9134 11.6433 94.2678 11.6455C94.6007 11.6474 94.7339 11.6486 95.0335 11.6672C95.4807 11.6962 96.1062 11.687 96.5271 11.6402C96.6412 11.6277 96.7389 11.5949 96.8554 11.5847C96.941 11.577 97.0527 11.5866 97.1265 11.5801C97.2859 11.5668 97.3596 11.5386 97.538 11.5238C98.085 11.4773 98.7865 11.4846 99.3502 11.4678C99.619 11.4598 100.059 11.4621 100.287 11.4138C100.475 11.3742 100.485 11.3323 100.744 11.3076C100.991 11.284 101.26 11.2927 101.519 11.2939C101.945 11.295 102.642 11.3042 102.67 11.1691C103.108 11.2296 104.126 11.2098 104.621 11.1828C104.939 11.1656 105.218 11.115 105.527 11.1013C105.66 11.0948 105.826 11.0994 106 11.1047V0H0Z" fill="#FFEAE2"/>
</svg>
