<svg width="107" height="268" viewBox="0 0 107 268" fill="none" xmlns="http://www.w3.org/2000/svg">
<path d="M106.168 -3.57628e-05L105.117 198.103C104.836 197.093 104.543 196.16 104.259 195.176C103.821 193.649 104.122 193.174 104.147 190.96C104.166 189.408 103.69 186.252 103.474 185.37C103.343 184.836 103.163 184.658 103.012 184.539C102.723 184.318 102.71 184.488 102.42 183.343C102.166 182.325 101.665 181.248 101.496 179.814C101.365 183.334 100.977 184.87 100.441 186.49C99.9742 187.881 100.103 191.664 99.4663 192.318C99.2645 192.521 99.0689 192.241 98.8639 192.496C98.5895 192.852 98.3671 193.055 98.069 193.047C97.6463 193.047 97.2946 192.343 96.8877 192.343C96.6275 192.343 96.5124 191.868 96.2695 191.596C96.0109 191.317 95.686 192.063 95.432 191.673C95.227 191.35 95.2128 190.621 94.9668 190.621C94.7223 190.613 94.4795 191.673 94.2524 191.537C94.1041 191.444 94.0237 190.417 93.8565 190.485C93.7761 190.511 93.642 191.3 93.5931 191.461C93.3897 192.122 93.2714 192.496 93.0664 192.038C92.8724 191.597 92.7809 190.137 92.5427 190.265C92.426 190.341 92.1564 191.842 92.0034 192.19C91.8409 192.547 91.7889 192.267 91.729 193.022C91.6564 193.946 91.751 196.287 91.7495 197.339C91.7447 198.926 91.751 199.375 91.5271 200.681C91.2763 202.14 91.0603 202.582 90.718 203.184C90.5272 203.515 90.3458 203.37 90.1692 203.633C89.9531 203.939 89.7118 204.948 89.6472 206.17C89.5983 207.111 89.7055 208.257 89.6219 209.173C89.4074 211.497 88.6741 212.209 88.5779 215.009C88.5211 216.671 88.652 216.468 88.3855 217.52C87.9928 219.097 87.4139 219.505 87.0938 221.71C86.9818 222.491 86.9471 223.627 86.8036 224.255C86.6207 225.078 86.2989 224.925 86.0797 225.273C85.8005 225.714 85.6081 226.325 85.4362 227.41C85.2959 228.31 85.3937 228.471 85.1571 229.166C84.9426 229.803 84.6981 230.201 84.4947 230.956C84.348 231.525 84.3685 231.762 84.1856 232.05C83.7329 232.738 83.1116 231.813 82.6684 231.448C82.4255 231.253 82.3608 231.652 82.1416 232.203C81.9271 232.729 81.6732 232.882 81.4729 233.569C81.2206 234.443 81.1622 235.749 80.8216 235.528C80.5219 235.342 80.3405 234.561 80.0314 234.994C79.8027 235.316 79.5977 236.054 79.3643 236.3C79.1672 236.521 79.0394 236.275 78.8407 236.784C78.5931 237.412 78.4654 237.887 78.1736 237.598C77.7036 237.123 77.016 236.148 76.617 234.672C76.5444 234.4 76.6012 233.857 76.4861 233.56C76.3741 233.264 76.1769 233.433 76.0744 233.416C75.5098 233.382 74.9231 233.705 74.3806 232.585C73.909 231.601 73.693 229.166 73.3176 227.639C72.9091 225.977 72.6347 222.346 72.1505 221.337C71.9203 220.862 71.5229 221.388 71.2721 221.388C70.9835 221.388 70.698 221.371 70.4094 221.405C70.1318 221.413 69.9836 221.116 69.7328 220.514C69.0878 218.979 68.5263 218.071 68.0627 214.966C67.7851 213.083 67.3892 213.032 67.1889 210.428C67.0896 209.147 67.1826 207.586 67.058 206.45C66.9744 205.703 66.7063 205.101 66.5802 204.745C66.1575 203.523 65.8499 202.607 65.4068 202.191C64.8469 201.665 64.276 201.157 63.7082 200.461C63.5 200.206 63.2461 199.808 63.0348 200.257C62.8439 200.656 62.7178 201.36 62.508 201.725C62.2241 202.208 62.2415 202.09 61.9513 201.708C61.71 201.386 61.4198 201.326 61.2022 201.962C60.6533 203.549 60.5666 207.289 60.1076 209.393C59.9073 210.301 59.7291 210.7 59.4784 210.776C59.2465 210.852 59.2166 210.623 59.0494 211.421C58.8207 212.506 58.6251 214.339 58.4201 215.586C58.275 216.468 58.1252 217.07 58.0006 217.952C57.7577 219.725 57.5385 221.133 57.2247 222.669C57.0196 223.67 56.936 225.434 56.7247 226.24C56.4392 227.334 56.0576 226.452 55.7813 227.003C55.562 227.419 56.5085 224.995 56.4727 226.081C56.3845 228.634 56.418 231.654 56.025 233.3C55.7723 234.352 55.5556 234.937 55.234 234.75C54.9959 234.589 54.7052 233.554 54.4645 233.902C54.224 234.233 54.0786 236.32 53.9501 237.338C53.7714 238.729 53.5427 239.984 53.4093 241.545C53.4046 241.265 53.376 241.155 53.3235 241.189C53.1235 241.995 53.0997 242.911 52.9972 244.047C52.8734 245.456 52.6685 246.855 52.4875 248.068C52.1324 250.469 51.7776 248.976 51.3059 249.722C51.1701 249.943 51.0201 250.477 50.9105 250.969C50.6889 251.953 50.7318 252.606 50.6269 253.794C50.3793 256.602 49.9814 258.256 49.405 258.739C49.2121 258.901 49.1119 258.68 48.9429 259.359C48.6951 260.368 48.6117 262.591 48.3377 263.702C48.1639 264.406 47.94 265.008 47.7257 265.203C47.5302 265.381 47.311 264.881 47.1205 265.127C46.6942 265.636 46.4178 268.003 45.8913 267.349C45.7746 267.197 45.7531 266.739 45.6246 266.544C45.3839 266.196 45.0362 266.637 44.7861 266.611C44.0238 266.544 43.3972 266.145 42.8708 263.167C42.5612 261.437 42.4349 262.2 42.0966 263.193C41.6369 264.525 41.4131 265.178 40.9055 265.178C40.4887 265.161 40.0599 265.509 39.7432 263.753C39.6812 263.396 39.6527 262.845 39.5787 262.523C39.3715 261.598 38.9452 261.624 38.6831 261.615C38.3162 261.573 38.2353 261.81 38.0017 260.385C37.9423 260.029 37.8183 259.062 37.7589 258.756C37.3658 256.797 36.6296 258.951 36.1795 258.816C35.8269 258.731 35.6006 257.374 35.2719 256.78C35.0432 258.052 34.9861 258.298 34.9574 260.105C34.7073 260.707 34.2143 260.207 33.9403 260.215C33.7593 260.215 33.5973 260.241 33.4233 260.046C33.3424 259.961 33.2352 259.605 33.1209 259.486C33.0042 259.367 32.8398 259.477 32.7255 259.477C32.2705 259.503 31.7846 260.36 31.3772 259.689C30.8698 258.875 30.3005 258.782 29.8382 257.221C29.3858 255.677 29.0736 255.236 28.521 255.262C27.7254 255.312 27.0202 254.142 26.2484 253.327C25.9483 253.005 25.5649 252.835 25.2933 252.064C25.1789 251.733 25.0955 251.147 24.9717 250.969C24.8454 250.783 24.7049 251.029 24.5691 250.834C24.4976 250.749 24.45 250.426 24.3737 250.35C24.1522 250.129 23.9426 250.248 23.7163 249.943C23.1875 249.239 22.6085 250.206 22.0964 249.425C21.9463 249.196 21.8678 248.815 21.6724 248.866C21.4057 248.942 21.3555 249.341 21.1532 250.265C20.8743 251.555 20.5718 252.785 20.217 253.378C19.974 253.769 19.75 253.633 19.5095 253.896C19.2165 254.218 18.9569 255.423 18.6638 255.838C18.4328 256.169 18.1803 255.889 17.9444 255.923C17.2488 256.042 16.5437 257.272 15.8506 256.517C15.5052 256.127 15.305 255.813 14.95 256.322C14.6643 256.729 14.3808 256.653 14.0925 257.051C13.821 257.425 13.3589 259.164 13.092 258.884C12.9206 258.705 12.9395 257.984 12.7228 258.01C12.4036 258.061 12.1058 259.511 11.7508 259.562C11.4174 259.605 11.284 259.63 10.9839 260.046C10.536 260.69 9.90954 260.487 9.48798 259.444C9.37364 259.164 9.27585 258.434 9.15915 258.205C9.07335 258.035 8.96154 258.247 8.88757 258.103C8.72796 257.806 8.65415 257.179 8.47546 256.848C7.92757 255.813 7.22496 255.974 6.66035 255.601C6.39114 255.423 5.95049 255.474 5.72181 254.396C5.53366 253.514 5.52404 252.581 5.26444 252.03C5.01668 251.504 4.74746 251.699 4.48786 251.724C4.06141 251.75 3.36353 251.953 3.33483 248.942C2.89655 250.291 1.87709 249.85 1.38156 249.247C1.06235 248.866 0.783677 247.737 0.47393 247.432C0.340663 247.288 0.173799 247.39 0 247.508V-3.57628e-05H106.168Z" fill="#FDFDFD"/>
</svg>
