<svg width="106" height="163" viewBox="0 0 106 163" fill="none" xmlns="http://www.w3.org/2000/svg">
<path d="M-4.52995e-06 -5.96046e-06L1.0495 120.73C1.32978 120.115 1.62267 119.546 1.9061 118.946C2.34384 118.016 2.04309 117.726 2.01789 116.377C1.999 115.431 2.47453 113.508 2.69026 112.97C2.82095 112.645 3.00045 112.536 3.15162 112.464C3.43977 112.329 3.45237 112.433 3.7421 111.735C3.99561 111.114 4.49636 110.458 4.66484 109.584C4.79554 111.73 5.18289 112.665 5.71826 113.653C6.18435 114.501 6.05523 116.806 6.69138 117.204C6.89293 117.328 7.08817 117.158 7.29287 117.313C7.56686 117.53 7.78889 117.654 8.0865 117.649C8.5085 117.649 8.85964 117.22 9.26589 117.22C9.52571 117.22 9.64064 116.93 9.88314 116.765C10.1414 116.594 10.4658 117.049 10.7193 116.811C10.924 116.615 10.9381 116.17 11.1838 116.17C11.4278 116.165 11.6703 116.811 11.8971 116.729C12.0451 116.672 12.1254 116.046 12.2923 116.088C12.3726 116.103 12.5065 116.584 12.5553 116.682C12.7584 117.085 12.8765 117.313 13.0812 117.034C13.2749 116.765 13.3662 115.876 13.604 115.953C13.7205 116 13.9898 116.915 14.1425 117.127C14.3047 117.344 14.3566 117.173 14.4165 117.633C14.4889 118.197 14.3944 119.624 14.396 120.265C14.4007 121.231 14.3944 121.505 14.618 122.302C14.8684 123.191 15.0841 123.46 15.4258 123.827C15.6163 124.028 15.7974 123.94 15.9738 124.101C16.1895 124.287 16.4304 124.902 16.495 125.646C16.5438 126.22 16.4367 126.918 16.5202 127.476C16.7343 128.893 17.4665 129.327 17.5626 131.033C17.6193 132.046 17.4886 131.922 17.7547 132.563C18.1468 133.525 18.7247 133.773 19.0443 135.117C19.1561 135.593 19.1907 136.285 19.334 136.668C19.5167 137.169 19.8379 137.076 20.0568 137.288C20.3355 137.557 20.5276 137.929 20.6992 138.591C20.8394 139.139 20.7417 139.237 20.9779 139.661C21.1921 140.049 21.4362 140.292 21.6393 140.752C21.7857 141.098 21.7652 141.243 21.9479 141.419C22.3998 141.838 23.0202 141.274 23.4627 141.052C23.7052 140.933 23.7697 141.176 23.9886 141.512C24.2028 141.832 24.4563 141.925 24.6562 142.344C24.9082 142.877 24.9664 143.673 25.3066 143.538C25.6057 143.425 25.7868 142.949 26.0955 143.213C26.3238 143.409 26.5285 143.859 26.7615 144.009C26.9584 144.143 27.0859 143.993 27.2843 144.303C27.5315 144.686 27.6591 144.976 27.9504 144.8C28.4196 144.51 29.1061 143.916 29.5045 143.016C29.577 142.851 29.5203 142.52 29.6352 142.339C29.747 142.158 29.9438 142.261 30.0462 142.251C30.6099 142.23 31.1957 142.427 31.7373 141.745C32.2081 141.145 32.4239 139.661 32.7986 138.731C33.2065 137.717 33.4804 135.505 33.9639 134.89C34.1937 134.6 34.5905 134.921 34.8409 134.921C35.1291 134.921 35.4141 134.91 35.7022 134.931C35.9794 134.936 36.1274 134.755 36.3777 134.388C37.0218 133.452 37.5823 132.899 38.0453 131.007C38.3224 129.86 38.7176 129.829 38.9176 128.241C39.0168 127.461 38.9239 126.51 39.0483 125.817C39.1318 125.362 39.3994 124.995 39.5254 124.778C39.9474 124.033 40.2545 123.475 40.6969 123.222C41.2559 122.901 41.8259 122.591 42.3928 122.167C42.6007 122.012 42.8542 121.769 43.0652 122.043C43.2557 122.286 43.3817 122.715 43.5911 122.937C43.8745 123.232 43.8572 123.16 44.1469 122.927C44.3878 122.731 44.6776 122.694 44.8949 123.082C45.4428 124.049 45.5295 126.329 45.9877 127.611C46.1876 128.164 46.3656 128.407 46.616 128.453C46.8474 128.5 46.8773 128.36 47.0442 128.846C47.2726 129.508 47.4678 130.625 47.6725 131.385C47.8174 131.922 47.967 132.289 48.0914 132.827C48.3339 133.907 48.5527 134.766 48.8661 135.701C49.0708 136.311 49.1542 137.386 49.3652 137.878C49.6502 138.544 50.0313 138.007 50.3072 138.343C50.5261 138.596 49.5811 137.119 49.6168 137.781C49.7049 139.337 49.6715 141.177 50.0639 142.18C50.3161 142.821 50.5325 143.178 50.8535 143.064C51.0913 142.966 51.3815 142.335 51.6218 142.547C51.8619 142.749 52.0071 144.021 52.1355 144.641C52.3139 145.489 52.5422 146.254 52.6754 147.205C52.6801 147.034 52.7086 146.967 52.761 146.988C52.9607 147.479 52.9845 148.037 53.0868 148.73C53.2104 149.588 53.415 150.441 53.5958 151.18C53.9502 152.643 54.3045 151.734 54.7755 152.189C54.911 152.323 55.0608 152.649 55.1702 152.948C55.3914 153.548 55.3486 153.946 55.4533 154.67C55.7006 156.381 56.0978 157.389 56.6733 157.684C56.8659 157.782 56.9659 157.648 57.1347 158.061C57.3821 158.676 57.4654 160.031 57.7389 160.708C57.9124 161.137 58.136 161.504 58.35 161.623C58.5451 161.732 58.764 161.427 58.9542 161.577C59.3798 161.887 59.6558 163.329 60.1815 162.931C60.298 162.838 60.3194 162.559 60.4477 162.44C60.688 162.228 61.0352 162.497 61.285 162.481C62.046 162.44 62.6716 162.197 63.1972 160.382C63.5063 159.328 63.6324 159.793 63.9702 160.398C64.4292 161.21 64.6526 161.608 65.1593 161.608C65.5755 161.597 66.0036 161.809 66.3198 160.739C66.3817 160.522 66.4102 160.186 66.484 159.99C66.691 159.426 67.1166 159.442 67.3783 159.436C67.7445 159.411 67.8253 159.555 68.0585 158.687C68.1179 158.47 68.2416 157.88 68.301 157.694C68.6934 156.5 69.4284 157.813 69.8778 157.73C70.2299 157.679 70.4559 156.852 70.784 156.49C71.0124 157.265 71.0693 157.415 71.098 158.516C71.3477 158.883 71.84 158.578 72.1135 158.583C72.2942 158.583 72.456 158.599 72.6296 158.48C72.7104 158.428 72.8175 158.211 72.9317 158.139C73.0482 158.066 73.2123 158.134 73.3264 158.134C73.7807 158.149 74.2658 158.671 74.6726 158.263C75.1791 157.767 75.7475 157.71 76.2091 156.759C76.6608 155.818 76.9725 155.549 77.5242 155.564C78.3186 155.595 79.0226 154.882 79.7932 154.386C80.0929 154.189 80.4757 154.086 80.7468 153.615C80.861 153.414 80.9443 153.057 81.0679 152.948C81.194 152.835 81.3343 152.985 81.4699 152.866C81.5412 152.814 81.5888 152.618 81.665 152.571C81.8861 152.437 82.0953 152.509 82.3213 152.323C82.8493 151.894 83.4273 152.483 83.9386 152.008C84.0885 151.868 84.1669 151.635 84.362 151.666C84.6283 151.713 84.6783 151.956 84.8804 152.519C85.1588 153.305 85.4608 154.055 85.8151 154.417C86.0577 154.654 86.2813 154.572 86.5214 154.732C86.814 154.928 87.0732 155.663 87.3658 155.916C87.5964 156.117 87.8485 155.947 88.0841 155.968C88.7785 156.04 89.4825 156.79 90.1746 156.329C90.5194 156.092 90.7192 155.9 91.0737 156.211C91.359 156.459 91.642 156.412 91.9298 156.655C92.2009 156.883 92.6623 157.942 92.9287 157.772C93.0999 157.663 93.081 157.224 93.2974 157.239C93.6161 157.27 93.9134 158.154 94.2678 158.185C94.6007 158.211 94.7339 158.227 95.0335 158.48C95.4807 158.873 96.1062 158.749 96.5271 158.113C96.6412 157.942 96.7389 157.498 96.8554 157.358C96.941 157.255 97.0527 157.384 97.1265 157.296C97.2859 157.115 97.3596 156.733 97.538 156.531C98.085 155.9 98.7865 155.999 99.3502 155.771C99.619 155.663 100.059 155.694 100.287 155.037C100.475 154.499 100.485 153.931 100.744 153.595C100.991 153.274 101.26 153.393 101.519 153.409C101.945 153.424 102.642 153.548 102.67 151.713C103.108 152.535 104.126 152.266 104.621 151.899C104.939 151.666 105.218 150.979 105.527 150.793C105.66 150.705 105.826 150.767 106 150.839V-5.96046e-06H-4.52995e-06Z" fill="#FDFDFD"/>
</svg>
