<svg width="137" height="142" viewBox="0 0 137 142" fill="none" xmlns="http://www.w3.org/2000/svg">
<path d="M126.341 112.542C134.167 104.301 139.411 91.8344 131.267 71.6644C127.427 62.1528 120.24 52.1247 114.427 44.8782C133.476 68.6236 124.481 134.294 79.928 127.683C82.9357 128.339 85.9915 128.798 89.0187 129.046C106.259 130.456 118.515 120.783 126.341 112.542Z" fill="black"/>
<path d="M53.3914 111.425C54.2679 110.547 53.9043 110.587 54.7833 109.699C45.3988 85.6138 55.3686 61.3805 71.3916 62.3223C60.325 62.9255 58.0733 67.8733 52.7684 72.6954C41.5834 86.8786 47.0603 101.31 50.7269 107.528C51.5126 108.86 52.4032 110.162 53.3914 111.425Z" fill="black"/>
<path d="M102.843 5.17164C90.6562 13.6865 98.5906 27.9706 105.873 34.8993L105.992 35.0301C106.77 35.8861 108.379 37.654 110.45 40.0771C101.431 31.0582 95.3982 2.01519 115.429 1.53706C111.274 1.26605 106.694 2.48102 102.843 5.17164Z" fill="black"/>
<path d="M9.48213 120.773C-0.923085 121.711 0.598527 131.756 4.25052 136.406C9.46746 141.782 14.9552 140.667 22.1065 137.473C5.52634 143.994 1.34865 122.333 9.48213 120.773Z" fill="black"/>
<path d="M105.873 34.8993C98.5906 27.9706 90.6562 13.6865 102.843 5.17164C106.694 2.48102 111.274 1.26605 115.429 1.53706M105.873 34.8993L105.992 35.0301M105.873 34.8993C105.913 34.9378 105.95 34.9838 105.992 35.0301M52.7684 72.6954C41.5834 86.8786 47.0603 101.31 50.7269 107.528C51.5126 108.86 52.4032 110.162 53.3914 111.425M52.7684 72.6954C58.1252 65.9026 66.6869 59.0916 76.0511 63.7602M52.7684 72.6954C58.0733 67.8733 60.325 62.9255 71.3916 62.3223C55.3686 61.3805 45.3988 85.6138 54.7833 109.699M114.427 44.8782C120.24 52.1247 127.427 62.1528 131.267 71.6644C139.411 91.8344 134.167 104.301 126.341 112.542C118.515 120.783 106.259 130.456 89.0187 129.046C85.9915 128.798 82.9357 128.339 79.928 127.683M114.427 44.8782C133.476 68.6236 124.481 134.294 79.928 127.683M114.427 44.8782C112.994 43.0925 110.45 40.0771 110.45 40.0771M79.928 127.683C58.6097 123.793 54.7833 109.699 54.7833 109.699M79.928 127.683C67.7385 125.021 59.8468 119.676 53.3914 111.425M53.3914 111.425C54.2679 110.547 53.9043 110.587 54.7833 109.699M53.3914 111.425C46.2936 118.539 37.1063 130.209 26.6542 135.32C26.007 135.636 25.373 135.945 24.7513 136.243M54.7833 109.699C75.6716 88.5965 96.634 61.4914 109.699 44.1091C115.517 36.1172 131.422 23.7183 126.403 8.56674C124.545 4.19092 120.276 1.85316 115.429 1.53706M115.429 1.53706C95.3982 2.01519 101.431 31.0582 110.45 40.0771M110.45 40.0771C108.379 37.654 106.77 35.8861 105.992 35.0301M10.6104 120.709C10.2196 120.719 9.84369 120.741 9.48213 120.773M9.48213 120.773C-0.923085 121.711 0.598527 131.756 4.25052 136.406C9.46746 141.782 14.9552 140.667 22.1065 137.473M9.48213 120.773C1.34865 122.333 5.52634 143.994 22.1065 137.473M24.7513 136.243C23.8372 136.731 22.9556 137.139 22.1065 137.473M24.7513 136.243C23.8442 136.678 22.9634 137.09 22.1065 137.473" stroke="black" stroke-width="3" stroke-linecap="round"/>
</svg>
